<?xml version="1.0" encoding="utf-8"?>
<!-- Generator: Adobe Illustrator 27.5.0, SVG Export Plug-In . SVG Version: 6.00 Build 0)  -->
<svg version="1.1" xmlns="http://www.w3.org/2000/svg" xmlns:xlink="http://www.w3.org/1999/xlink" x="0px" y="0px"
	 viewBox="0 0 500 500" style="enable-background:new 0 0 500 500;" xml:space="preserve">
<g id="BACKGROUND">
	<rect style="fill-rule:evenodd;clip-rule:evenodd;fill:#FFFFFF;" width="500" height="500"/>
	<path style="fill-rule:evenodd;clip-rule:evenodd;fill:#DBECFF;" d="M383.695,435.482c43.185,0,78.518-35.345,78.518-78.544l0,0
		c0-43.199-35.332-78.544-78.517-78.545h-0.001c-18.26,0-33.199-14.943-33.199-33.21l0,0c0-18.266,14.94-33.21,33.2-33.21h3.95
		c18.984,0,34.517-15.538,34.517-34.528v-0.001c0-18.99-15.532-34.528-34.517-34.528h-12.12c-7.391,0-13.438-6.049-13.438-13.442
		l0,0c0-7.393,6.047-13.442,13.438-13.442h25.199c5.101,0,9.274-4.175,9.274-9.277l0,0c0-5.103-4.174-9.277-9.274-9.277h-49.59
		c-8.015,0-14.572-6.56-14.572-14.577v0c0-8.017,6.558-14.577,14.572-14.577h17.901c5.102,0,9.274-4.175,9.274-9.277v0
		c0-5.103-4.174-9.277-9.274-9.277H173.144c-6.655,0-12.101,5.448-12.101,12.105v0c0,6.657,5.446,12.105,12.101,12.105h13.942
		c10.458,0,19.015,8.56,19.015,19.021v0.001c0,10.461-8.556,19.021-19.015,19.021H73.164c-6.656,0-12.102,5.448-12.102,12.105l0,0
		c0,6.658,5.446,12.105,12.102,12.105h11.622c9.644,0,17.535,7.893,17.535,17.54l0,0c0,9.647-7.891,17.54-17.535,17.54H68.97
		c-24.772,0-45.04,20.275-45.04,45.054v0.001c0,24.779,20.269,45.054,45.04,45.054h5.155c23.827,0,43.321,19.501,43.321,43.335l0,0
		c0,23.834-19.494,43.335-43.321,43.335H62.961c-24.023,0-43.679,19.662-43.679,43.693l0,0c0,24.031,19.655,43.693,43.679,43.693
		C187.25,435.482,259.406,435.482,383.695,435.482L383.695,435.482z M142.178,73.981c-6.684,0-12.102-5.42-12.102-12.106
		c0-6.686,5.418-12.106,12.102-12.106c6.684,0,12.102,5.42,12.102,12.106C154.28,68.561,148.862,73.981,142.178,73.981
		L142.178,73.981z M443.36,116.034c-5.122,0-9.274-4.154-9.274-9.278c0-5.124,4.152-9.277,9.274-9.277
		c5.122,0,9.274,4.154,9.274,9.277C452.635,111.88,448.482,116.034,443.36,116.034z"/>
</g>
<g id="OBJECTS">
	<path style="fill-rule:evenodd;clip-rule:evenodd;fill:#AFDAEC;" d="M502.62,399.59l-320.56,1.11l9.09-55.14
		c10.53-6.71,17.81-18.12,18.82-31.22c0.23,0.42,0.47,0.94,0.67,1.6c0.87,2.76,1.74,7.17,1.74,7.17s0.43,1.18,2.11,1.71
		c1.68,0.53,3.52,0.76,3.52,0.76s3.14,0.23,4.28-3.59c1.14-3.82,10.18-43.79,10.18-43.79s0.49-2.3,2.93-2.3h14.24
		c2.71,0,5.64,1.94,7.05,6.06c1.4,4.11,4.22,12.93,4.22,12.93s1.08,2.3,3.74,2.3h5.04c1.62,0,5.68-1.12,6.39-5.53
		c0.7-4.41,14.84-78.72,14.84-78.72s1.79-6.47,4.93-6.47h12.29c3.58,0,6.5,4.82,7.8,9.06c1.3,4.23,6.61,18.46,6.61,18.46
		s1.52,4.17,6.07,4.17h14.03c3.19,0,5.04-8.23,6.13-12.81c1.08-4.59,24.91-136.51,24.91-136.51s0.98-4.29,2.96-4.29h7.77
		c2.11,0,4.53,1.17,7.13,3.17c2.6,2,8.55,6.47,8.55,6.47s3.52,2.82,3.52,9.34c0,6.53,7.56,102.51,7.56,109.85
		c0,1.04,0.07,2.11,0.2,3.18c0.31,2.62,1,5.27,2.04,7.75c1.51,3.68,3.76,6.98,6.6,9.2c1.63,1.27,6.17,4.55,11.85,8.62
		c-0.93,2-1.66,4.11-2.16,6.31c-0.49,2.2-0.75,4.48-0.75,6.82c0,8.58,3.51,16.37,9.16,22.03c5.65,5.65,13.44,9.16,22.01,9.16
		c4.76,0,9.42,0.46,13.93,1.33C484.11,324.15,502.62,399.59,502.62,399.59z"/>
	<path style="fill-rule:evenodd;clip-rule:evenodd;fill:#C9E1EC;" d="M398.17,166.33l6.33-3.02l-7.78-2.42l0.002-48.505
		c0-7.525-4.289-14.393-11.051-17.695l-11.981-5.85c0,0,0.98-4.29,2.96-4.29h7.77c2.11,0,4.53,1.17,7.13,3.17
		c2.6,2,8.55,6.47,8.55,6.47s3.52,2.82,3.52,9.34c0,6.53,7.56,102.51,7.56,109.85c0,1.04,0.07,2.11,0.2,3.18L398.17,166.33z"/>
	<path style="fill-rule:evenodd;clip-rule:evenodd;fill:#FFFFFF;" d="M380.034,167.784c-3.311,0-6.481,0.596-9.413,1.687
		c-1.325-1.46-3.237-2.377-5.364-2.377c-0.991,0-1.936,0.199-2.795,0.559c-0.475-6.239-5.685-11.154-12.044-11.154
		c-2.761,0-5.305,0.927-7.338,2.486c-1.303-1.792-3.414-2.957-5.798-2.957c-0.398,0-0.79,0.033-1.17,0.095
		c0,0-1.03-6.189-15.44-5.503c-9.396,0.448-15.654,8.378-17.381,17.545c-1.752,9.296,4.968,14.99,17.143,14.99h35.213h12.369h20.318
		c7.872,0,19.119,1.29,11.307-6.945C394.716,171.02,387.753,167.784,380.034,167.784z"/>
	<path style="fill-rule:evenodd;clip-rule:evenodd;fill:#FFFFFF;" d="M105,181.556c0.908,0,1.778,0.164,2.582,0.463
		c0.364-0.401,0.888-0.652,1.472-0.652c0.272,0,0.531,0.055,0.767,0.154c0.13-1.712,1.56-3.061,3.304-3.061
		c0.757,0,1.455,0.255,2.013,0.683c0.357-0.492,0.937-0.812,1.591-0.812c0.109,0,0.217,0.009,0.321,0.026
		c-0.221-0.517-0.344-1.085-0.344-1.682c0-2.363,1.915-4.279,4.277-4.279c0.44,0,0.864,0.067,1.264,0.19
		c0.31-0.662,0.981-1.119,1.759-1.119l0.057,0.001c-0.009-0.154-0.014-0.309-0.014-0.465c0-4.246,3.441-7.688,7.686-7.688
		c4.245,0,7.686,3.442,7.686,7.688c0,0.059-0.001,0.119-0.002,0.178c0.371-0.094,0.76-0.144,1.16-0.144
		c0.795,0,1.544,0.197,2.201,0.545c1.12-1.529,2.929-2.522,4.969-2.522c3.4,0,6.156,2.757,6.156,6.159
		c0,0.669-0.107,1.313-0.304,1.915c0.062-0.004,0.123-0.006,0.186-0.006c1.675,0,3.032,1.357,3.032,3.033
		c0,0.197-0.019,0.389-0.054,0.576c0.021-0.001,0.042-0.001,0.063-0.001c0.946,0,1.717,0.752,1.748,1.69
		c0.263-0.05,0.534-0.076,0.811-0.076c1.094,0,2.116,0.38,2.853,1.077c1.969,1.863-0.181,2.347-2.253,2.347h-2.703h-2.121h-43.472
		h-3.394h-5.575c-2.16,0-5.245,0.354-3.102-1.905C100.972,182.444,102.882,181.556,105,181.556z"/>
	<g>
		<g>
			<path style="fill-rule:evenodd;clip-rule:evenodd;fill:#A3CD9E;" d="M192.335,291.661c0,18.555,0,11.085,0,18.314
				c0,7.229,5.3,12.049,8.311,15.182c3.012,3.132,4.818,7.59,4.818,21.566c0,13.977-0.392,38.495-0.392,50.303
				c0,31.839-60.645,31.839-60.645,0c0-11.808-0.392-36.326-0.392-50.303c0-13.977,1.807-18.435,4.818-21.566
				c3.011-3.133,8.311-7.952,8.311-15.182c0-7.229,0,0.241,0-18.314C157.164,267.244,192.335,267.244,192.335,291.661z"/>
			<path style="fill-rule:evenodd;clip-rule:evenodd;fill:#87A2C2;" d="M176.02,293.137c0-0.629-0.51-1.139-1.138-1.139
				c-0.629,0-1.138,0.51-1.138,1.139v26.028l-5.358-3.095c-0.326-0.188-0.741-0.074-0.928,0.251
				c-0.188,0.325-0.075,0.741,0.25,0.929l6.036,3.485v37.228l-15.868-9.164c-0.325-0.188-0.741-0.075-0.928,0.251
				c-0.188,0.325-0.075,0.741,0.251,0.929l16.545,9.555v35.699l-15.868-9.163c-0.325-0.188-0.741-0.075-0.928,0.25
				c-0.188,0.326-0.075,0.742,0.251,0.929l16.545,9.556v41.042c0,0.629,0.509,1.139,1.138,1.139c0.628,0,1.138-0.51,1.138-1.139
				v-31.54l13.588-7.848c0.326-0.188,0.438-0.604,0.251-0.929c-0.187-0.326-0.602-0.439-0.928-0.251l-12.911,7.456v-29.841
				l13.588-7.848c0.326-0.188,0.438-0.604,0.251-0.929c-0.187-0.326-0.602-0.439-0.928-0.251l-12.911,7.456v-29.841l13.588-7.848
				c0.326-0.188,0.438-0.603,0.251-0.929c-0.187-0.325-0.602-0.438-0.928-0.251l-12.911,7.457V312.07l8.852-5.112
				c0.326-0.186,0.438-0.603,0.251-0.928c-0.188-0.326-0.602-0.439-0.929-0.251l-8.174,4.721V293.137z"/>
		</g>
		<g>
			<path style="fill-rule:evenodd;clip-rule:evenodd;fill:#B9D9B5;" d="M102.305,120.251L102.305,120.251
				c-8.252,0-15.004,6.754-15.004,15.009v61.369v2.995c-0.953,24.018-26.007,25.241-26.007,68.38c0,52.137,0,36.901,0,89.038
				c0,10.64,8.702,19.345,19.338,19.345h43.344c10.636,0,19.338-8.705,19.338-19.345c0-76.595,0-85.818,0-162.414
				c0-22.68-5.198-24.206-15.837-30.352c-9.351-5.4-10.12-14.962-10.169-17.198V146.6v-11.34
				C117.309,127.005,110.557,120.251,102.305,120.251z"/>
			<path style="fill-rule:evenodd;clip-rule:evenodd;fill:#829FBF;" d="M104.125,165.489c0-1.005-0.815-1.821-1.82-1.821
				c-1.005,0-1.82,0.816-1.82,1.821v41.626l-8.568-4.948c-0.521-0.3-1.185-0.12-1.485,0.4c-0.298,0.521-0.119,1.187,0.401,1.485
				l9.652,5.574v59.538L75.11,254.508c-0.521-0.299-1.186-0.119-1.485,0.401c-0.299,0.521-0.12,1.186,0.401,1.485l26.459,15.281
				v57.093L75.11,314.114c-0.521-0.3-1.186-0.12-1.485,0.4c-0.299,0.521-0.12,1.186,0.401,1.484l26.459,15.282v81.86
				c0,1.006,0.815,1.82,1.82,1.82c1.005,0,1.82-0.814,1.82-1.82v-66.665l21.731-12.551c0.521-0.299,0.701-0.964,0.401-1.484
				c-0.3-0.522-0.964-0.701-1.485-0.401l-20.647,11.925v-47.724l21.731-12.551c0.521-0.299,0.701-0.964,0.401-1.485
				c-0.3-0.521-0.964-0.7-1.485-0.4l-20.647,11.924v-47.723l21.731-12.55c0.521-0.3,0.701-0.965,0.401-1.485
				c-0.3-0.521-0.964-0.701-1.485-0.401l-20.647,11.924V195.77l21.731-12.55c0.521-0.3,0.701-0.964,0.401-1.485
				c-0.3-0.521-0.964-0.701-1.485-0.401l-20.647,11.925V165.489z"/>
		</g>
		<g>
			<path style="fill-rule:evenodd;clip-rule:evenodd;fill:#A3CD9E;" d="M90.032,225.588c0,27.904,0,16.67,0,27.541
				c0,10.872,7.97,18.119,12.498,22.83c4.528,4.712,7.246,11.416,7.246,32.434c0,21.02-0.588,57.893-0.588,75.65
				c0,47.882-91.203,47.882-91.203,0c0-17.758-0.589-54.631-0.589-75.65c0-21.017,2.717-27.722,7.246-32.434
				c4.529-4.711,12.499-11.958,12.499-22.83c0-10.872,0,0.362,0-27.541C37.14,188.869,90.032,188.869,90.032,225.588z"/>
			<path style="fill-rule:evenodd;clip-rule:evenodd;fill:#87A2C2;" d="M65.496,227.807c0-0.945-0.766-1.712-1.711-1.712
				c-0.946,0-1.712,0.767-1.712,1.712v39.144l-8.057-4.654c-0.49-0.281-1.115-0.112-1.396,0.378
				c-0.281,0.489-0.112,1.114,0.377,1.397l9.076,5.241v55.987l-23.863-13.782c-0.489-0.281-1.115-0.112-1.396,0.378
				c-0.282,0.489-0.113,1.114,0.377,1.396l24.881,14.37v53.686l-23.863-13.781c-0.489-0.281-1.115-0.112-1.396,0.377
				c-0.282,0.49-0.113,1.115,0.377,1.397l24.881,14.369v61.723c0,0.945,0.766,1.712,1.712,1.712c0.945,0,1.711-0.767,1.711-1.712
				v-47.433l20.435-11.803c0.49-0.281,0.658-0.906,0.377-1.397c-0.282-0.489-0.907-0.658-1.396-0.377l-19.416,11.213V350.76
				l20.435-11.802c0.49-0.281,0.658-0.906,0.377-1.397c-0.282-0.489-0.907-0.658-1.396-0.377l-19.416,11.213v-44.877l20.435-11.802
				c0.49-0.281,0.658-0.907,0.377-1.396c-0.282-0.49-0.907-0.659-1.396-0.377l-19.416,11.213v-44.878l13.312-7.688
				c0.49-0.281,0.659-0.906,0.377-1.396c-0.282-0.489-0.906-0.658-1.396-0.377l-12.293,7.1V227.807z"/>
		</g>
		<g>
			<path style="fill-rule:evenodd;clip-rule:evenodd;fill:#B9D9B5;" d="M379.289,168.035L379.289,168.035
				c8.168,0,14.85,6.684,14.85,14.855v60.743v2.964c0.942,23.772,25.741,24.984,25.741,67.683c0,51.604,0,36.524,0,88.13
				c0,10.531-8.613,19.146-19.14,19.146h-42.903c-10.527,0-19.141-8.615-19.141-19.146c0-75.814,0-84.943,0-160.758
				c0-22.448,5.145-23.959,15.676-30.042c9.256-5.346,10.017-14.809,10.065-17.023v-0.474V182.89
				C364.438,174.719,371.121,168.035,379.289,168.035z"/>
			<path style="fill-rule:evenodd;clip-rule:evenodd;fill:#829FBF;" d="M377.487,212.811c0-0.995,0.807-1.802,1.802-1.802
				c0.995,0,1.802,0.807,1.802,1.802v41.201l8.48-4.898c0.516-0.296,1.174-0.118,1.47,0.397c0.296,0.516,0.118,1.174-0.397,1.47
				l-9.553,5.517v58.931l25.116-14.506c0.516-0.296,1.174-0.118,1.471,0.397c0.296,0.515,0.118,1.173-0.397,1.47l-26.19,15.125
				v56.511l25.116-14.506c0.516-0.297,1.174-0.119,1.471,0.397c0.296,0.516,0.118,1.174-0.397,1.47l-26.19,15.126v81.025
				c0,0.995-0.807,1.802-1.802,1.802c-0.995,0-1.802-0.807-1.802-1.802v-65.985l-21.509-12.423
				c-0.516-0.296-0.693-0.954-0.397-1.469c0.297-0.517,0.955-0.694,1.471-0.397l20.436,11.803v-47.237l-21.509-12.422
				c-0.516-0.296-0.693-0.954-0.397-1.47c0.297-0.516,0.955-0.693,1.471-0.397l20.436,11.803v-47.236l-21.509-12.422
				c-0.516-0.297-0.693-0.955-0.397-1.47c0.297-0.517,0.955-0.694,1.471-0.397l20.436,11.803v-47.237l-21.509-12.422
				c-0.516-0.296-0.693-0.955-0.397-1.47c0.297-0.516,0.955-0.693,1.471-0.397l20.436,11.804V212.811z"/>
		</g>
		<g>
			<path style="fill-rule:evenodd;clip-rule:evenodd;fill:#A3CD9E;" d="M414.049,298.228c0,17.437,0,10.417,0,17.21
				c0,6.793-4.98,11.322-7.81,14.266c-2.83,2.944-4.527,7.133-4.527,20.267c0,13.134,0.367,36.175,0.367,47.272
				c0,29.92,56.991,29.92,56.991,0c0-11.097,0.367-34.138,0.367-47.272c0-13.134-1.697-17.323-4.527-20.267
				c-2.829-2.944-7.811-7.473-7.811-14.266c0-6.793,0,0.227,0-17.21C447.1,275.283,414.049,275.283,414.049,298.228z"/>
			<path style="fill-rule:evenodd;clip-rule:evenodd;fill:#87A2C2;" d="M429.381,299.615c0-0.591,0.479-1.07,1.07-1.07
				c0.59,0,1.069,0.479,1.069,1.07v24.46l5.034-2.908c0.306-0.176,0.696-0.07,0.873,0.235c0.175,0.306,0.069,0.697-0.236,0.873
				l-5.671,3.275v34.985l14.91-8.612c0.307-0.176,0.697-0.07,0.873,0.236c0.176,0.306,0.07,0.696-0.235,0.872l-15.548,8.979v33.548
				l14.91-8.612c0.307-0.176,0.697-0.07,0.873,0.236c0.176,0.306,0.07,0.697-0.235,0.873l-15.548,8.979v38.569
				c0,0.591-0.479,1.069-1.069,1.069c-0.591,0-1.07-0.478-1.07-1.069v-29.641l-12.77-7.374c-0.306-0.177-0.411-0.567-0.235-0.873
				c0.176-0.306,0.566-0.411,0.872-0.235l12.133,7.007v-28.043l-12.77-7.375c-0.306-0.176-0.411-0.567-0.235-0.873
				c0.176-0.307,0.566-0.412,0.872-0.236l12.133,7.007v-28.043l-12.77-7.375c-0.306-0.176-0.411-0.566-0.235-0.873
				c0.176-0.306,0.566-0.412,0.872-0.236l12.133,7.007v-28.043l-8.318-4.804c-0.306-0.176-0.411-0.566-0.235-0.873
				c0.176-0.306,0.566-0.412,0.872-0.236l7.682,4.437V299.615z"/>
		</g>
		<g>
			<path style="fill-rule:evenodd;clip-rule:evenodd;fill:#CED9E6;" d="M280.609,353.247c18.305,0,33.145,14.845,33.145,33.156
				c0,0.766-0.026,1.525-0.077,2.278c11.585,1.76,20.945,10.291,23.924,21.433c3.182,0.287,6.102,1.483,8.497,3.326
				c3.786-4.082,9.194-6.637,15.199-6.637c11.448,0,20.729,9.284,20.729,20.736c0,3.064-0.665,5.974-1.857,8.592H200.884
				c-0.823-2.71-1.267-5.584-1.267-8.563c0-16.253,13.172-29.429,29.42-29.429c1.223,0,2.428,0.075,3.612,0.22
				c2.505-6.033,8.108-10.456,14.823-11.281c-0.005-0.226-0.008-0.45-0.008-0.676C247.465,368.092,262.304,353.247,280.609,353.247z
				"/>
			<g>
				<path style="fill-rule:evenodd;clip-rule:evenodd;fill:#DFE6EE;" d="M223.658,416.42c2.188,0,4.27,0.451,6.159,1.267
					c1.728-3.673,5.46-6.216,9.787-6.216c0.645,0,1.275,0.057,1.888,0.165c1.363-8.207,8.491-14.465,17.082-14.465
					c2.016,0,3.951,0.346,5.751,0.979c4.458-6.88,12.201-11.432,21.007-11.432c13.817,0,25.018,11.204,25.018,25.025
					c0,1.924-0.217,3.797-0.628,5.596c0.546-0.085,1.107-0.129,1.678-0.129c3.287,0,6.231,1.468,8.214,3.782
					c2.222-1.498,4.898-2.374,7.779-2.374c5.452,0,10.172,3.134,12.459,7.7c0.452-0.067,0.914-0.103,1.385-0.103
					c5.209,0,9.433,4.226,9.433,9.436c0,0.161-0.005,0.32-0.013,0.479H208.634c-0.361-1.315-0.554-2.699-0.554-4.129
					C208.08,423.397,215.055,416.42,223.658,416.42z"/>
				<g>
					<path style="fill-rule:evenodd;clip-rule:evenodd;fill:#DFE6EE;" d="M365.923,425.947c2.615,0,4.747-2.133,4.747-4.748
						c0-2.615-2.132-4.749-4.747-4.749c-2.614,0-4.747,2.134-4.747,4.749C361.176,423.815,363.309,425.947,365.923,425.947z"/>
					<path style="fill-rule:evenodd;clip-rule:evenodd;fill:#DFE6EE;" d="M326.763,414.893c1.817,0,3.299-1.483,3.299-3.301
						c0-1.817-1.482-3.3-3.299-3.3c-1.817,0-3.299,1.482-3.299,3.3C323.464,413.409,324.945,414.893,326.763,414.893z"/>
					<path style="fill-rule:evenodd;clip-rule:evenodd;fill:#DFE6EE;" d="M282.105,369.06c2.615,0,4.747-2.133,4.747-4.749
						c0-2.615-2.132-4.748-4.747-4.748c-2.614,0-4.746,2.133-4.746,4.748C277.359,366.927,279.491,369.06,282.105,369.06z"/>
					<path style="fill-rule:evenodd;clip-rule:evenodd;fill:#DFE6EE;" d="M263.076,379.48c2.615,0,4.748-2.133,4.748-4.749
						c0-2.615-2.133-4.748-4.748-4.748c-2.614,0-4.747,2.133-4.747,4.748C258.329,377.348,260.462,379.48,263.076,379.48z"/>
					<path style="fill-rule:evenodd;clip-rule:evenodd;fill:#DFE6EE;" d="M213.026,415.621c2.165,0,3.932-1.766,3.932-3.933
						c0-2.166-1.766-3.933-3.932-3.933c-2.166,0-3.932,1.767-3.932,3.933C209.094,413.855,210.86,415.621,213.026,415.621z"/>
					<path style="fill-rule:evenodd;clip-rule:evenodd;fill:#DFE6EE;" d="M287.383,381.201c1.627,0,2.953-1.327,2.953-2.954
						c0-1.627-1.326-2.954-2.953-2.954c-1.626,0-2.952,1.327-2.952,2.954C284.431,379.874,285.757,381.201,287.383,381.201z"/>
					<path style="fill-rule:evenodd;clip-rule:evenodd;fill:#DFE6EE;" d="M277.082,377.931c0.813,0,1.477-0.664,1.477-1.478
						s-0.663-1.477-1.477-1.477c-0.814,0-1.476,0.663-1.476,1.477S276.269,377.931,277.082,377.931z"/>
					<path style="fill-rule:evenodd;clip-rule:evenodd;fill:#DFE6EE;" d="M257.838,385.264c0.813,0,1.476-0.663,1.476-1.477
						c0-0.814-0.663-1.477-1.476-1.477c-0.813,0-1.477,0.663-1.477,1.477C256.361,384.601,257.025,385.264,257.838,385.264z"/>
					<path style="fill-rule:evenodd;clip-rule:evenodd;fill:#DFE6EE;" d="M224.481,410.014c0.813,0,1.476-0.663,1.476-1.477
						c0-0.814-0.663-1.477-1.476-1.477c-0.813,0-1.477,0.663-1.477,1.477C223.005,409.351,223.668,410.014,224.481,410.014z"/>
					<path style="fill-rule:evenodd;clip-rule:evenodd;fill:#DFE6EE;" d="M302.557,379.764c0.813,0,1.477-0.663,1.477-1.477
						c0-0.814-0.663-1.477-1.477-1.477c-0.814,0-1.477,0.663-1.477,1.477C301.08,379.101,301.743,379.764,302.557,379.764z"/>
					<path style="fill-rule:evenodd;clip-rule:evenodd;fill:#DFE6EE;" d="M316.485,403.23c0.814,0,1.477-0.663,1.477-1.477
						s-0.663-1.478-1.477-1.478c-0.813,0-1.476,0.664-1.476,1.478S315.673,403.23,316.485,403.23z"/>
					<path style="fill-rule:evenodd;clip-rule:evenodd;fill:#DFE6EE;" d="M311.1,395.997c1.265,0,2.296-1.032,2.296-2.297
						c0-1.266-1.031-2.297-2.296-2.297c-1.265,0-2.296,1.031-2.296,2.297C308.804,394.965,309.835,395.997,311.1,395.997z"/>
					<path style="fill-rule:evenodd;clip-rule:evenodd;fill:#DFE6EE;" d="M253.269,394.061c1.265,0,2.296-1.032,2.296-2.298
						c0-1.265-1.031-2.297-2.296-2.297c-1.265,0-2.296,1.032-2.296,2.297C250.973,393.029,252.004,394.061,253.269,394.061z"/>
					<circle style="fill-rule:evenodd;clip-rule:evenodd;fill:#DFE6EE;" cx="236.923" cy="404.709" r="2.296"/>
				</g>
			</g>
		</g>
	</g>
	<rect x="0.339" y="436.132" style="fill-rule:evenodd;clip-rule:evenodd;fill:#21193A;" width="500" height="64.509"/>
	<path style="fill-rule:evenodd;clip-rule:evenodd;fill:#33204A;" d="M159.069,452.136h33.424c2.771,0,5.04,2.269,5.04,5.041l0,0
		c0,2.772-2.269,5.041-5.04,5.041h-7.563c-2.198,0-4.001,1.801-4.001,4.001l0,0c0,2.201,1.801,4.002,4.001,4.002h156.593
		c2.2,0,4-1.801,4-4.002l0,0c0-2.2-1.802-4.001-4-4.001h-7.217c-2.772,0-5.04-2.269-5.04-5.041l0,0c0-2.772,2.269-5.041,5.04-5.041
		h39.799c4.399,0,7.999-3.601,7.999-8.002l0,0c0-4.401-3.601-8.002-7.999-8.002H159.069c-4.396,0-7.999,3.601-7.999,8.002l0,0
		C151.07,448.535,154.669,452.136,159.069,452.136L159.069,452.136z M174.121,470.221c-2.209,0-4.001-1.792-4.001-4.002
		c0-2.209,1.792-4.001,4.001-4.001s4.001,1.792,4.001,4.001C178.122,468.429,176.33,470.221,174.121,470.221z"/>
	<path style="fill-rule:evenodd;clip-rule:evenodd;fill:#FFFFFF;" d="M226.927,95.127c1.373,0,2.687,0.247,3.902,0.699
		c0.55-0.605,1.342-0.985,2.224-0.985c0.411,0,0.802,0.083,1.159,0.232c0.196-2.587,2.356-4.624,4.992-4.624
		c1.144,0,2.199,0.384,3.042,1.03c0.54-0.743,1.415-1.226,2.403-1.226c0.165,0,0.327,0.014,0.485,0.04
		c-0.334-0.78-0.519-1.639-0.519-2.542c0-3.57,2.893-6.464,6.462-6.464c0.665,0,1.306,0.101,1.909,0.287
		c0.469-0.999,1.482-1.691,2.659-1.691l0.086,0.002c-0.015-0.233-0.022-0.467-0.022-0.704c0-6.416,5.199-11.617,11.613-11.617
		c6.414,0,11.613,5.201,11.613,11.617c0,0.09-0.002,0.179-0.004,0.268c0.561-0.142,1.148-0.217,1.753-0.217
		c1.201,0,2.333,0.298,3.326,0.824c1.692-2.31,4.424-3.811,7.507-3.811c5.139,0,9.303,4.166,9.303,9.306
		c0,1.01-0.162,1.983-0.459,2.894c0.093-0.005,0.187-0.009,0.281-0.009c2.53,0,4.581,2.051,4.581,4.583
		c0,0.297-0.029,0.588-0.083,0.869c0.032-0.001,0.064-0.002,0.096-0.002c1.43,0,2.594,1.136,2.641,2.554
		c0.396-0.075,0.807-0.115,1.225-0.115c1.652,0,3.196,0.575,4.31,1.627c2.976,2.815-0.273,3.547-3.404,3.547h-4.082h-3.205h-65.684
		h-5.127h-8.423c-3.263,0-7.925,0.535-4.686-2.879C220.841,96.469,223.728,95.127,226.927,95.127z"/>
	<path style="fill-rule:evenodd;clip-rule:evenodd;fill:#AFDAEC;" d="M365.821,154.16c-0.383,0-0.693-0.311-0.693-0.693
		c0-0.383,0.311-0.693,0.693-0.693h20.354c0.383,0,0.693,0.31,0.693,0.693c0,0.383-0.31,0.693-0.693,0.693H365.821L365.821,154.16z
		 M389.971,154.16c-0.383,0-0.693-0.311-0.693-0.693c0-0.383,0.311-0.693,0.693-0.693h2.681c0.383,0,0.693,0.31,0.693,0.693
		c0,0.383-0.311,0.693-0.693,0.693H389.971z"/>
	<path style="fill-rule:evenodd;clip-rule:evenodd;fill:#FFFFFF;" d="M323.681,116.644c-0.382,0-0.692-0.311-0.692-0.693
		c0-0.383,0.311-0.693,0.692-0.693h20.173l0,0c1.654,0,3.152-0.67,4.236-1.755c1.085-1.084,1.755-2.583,1.755-4.237
		c0-1.655-0.67-3.153-1.755-4.238c-1.084-1.084-2.582-1.755-4.236-1.755c-1.063,0-2.06,0.275-2.921,0.757
		c-0.893,0.499-1.646,1.225-2.185,2.099c-0.2,0.326-0.628,0.428-0.953,0.227c-0.326-0.2-0.429-0.627-0.228-0.953
		c0.659-1.071,1.588-1.963,2.693-2.581c1.066-0.596,2.291-0.936,3.593-0.936c2.037,0,3.882,0.826,5.217,2.162
		c1.335,1.335,2.161,3.18,2.161,5.218c0,2.038-0.826,3.882-2.161,5.218c-1.331,1.332-3.168,2.157-5.198,2.162h-0.019l0,0H323.681
		L323.681,116.644z M319.891,115.257c0.383,0,0.693,0.311,0.693,0.693c0,0.383-0.311,0.693-0.693,0.693h-2.262
		c-0.383,0-0.693-0.311-0.693-0.693c0-0.383,0.311-0.693,0.693-0.693H319.891z"/>
	<path style="fill-rule:evenodd;clip-rule:evenodd;fill:#AFDAEC;" d="M341.914,119.889c-0.383,0-0.693,0.311-0.693,0.693
		c0,0.383,0.311,0.694,0.693,0.694h7.455h0.001c1.654,0,3.152,0.67,4.236,1.755c1.084,1.084,1.755,2.583,1.755,4.238
		c0,1.655-0.671,3.153-1.755,4.238c-1.084,1.085-2.582,1.755-4.236,1.755c-1.064,0-2.06-0.275-2.922-0.757
		c-0.892-0.499-1.646-1.224-2.184-2.099c-0.2-0.326-0.627-0.428-0.953-0.228c-0.326,0.201-0.428,0.627-0.227,0.954
		c0.659,1.071,1.589,1.963,2.693,2.581c1.065,0.596,2.292,0.936,3.594,0.936c2.037,0,3.881-0.826,5.216-2.162
		c1.336-1.335,2.161-3.181,2.161-5.218c0-2.038-0.825-3.883-2.161-5.218c-1.33-1.331-3.168-2.157-5.198-2.161l-0.018,0h-0.001
		H341.914L341.914,119.889z M338.124,121.276c0.382,0,0.692-0.311,0.692-0.694c0-0.383-0.311-0.693-0.692-0.693h-2.263
		c-0.383,0-0.693,0.311-0.693,0.693c0,0.383,0.31,0.694,0.693,0.694H338.124z"/>
	<path style="fill-rule:evenodd;clip-rule:evenodd;fill:#FFFFFF;" d="M324.563,195.52c-0.383,0-0.693,0.311-0.693,0.693
		c0,0.383,0.311,0.693,0.693,0.693h20.173l0,0c1.654,0,3.151,0.671,4.236,1.755c1.084,1.084,1.754,2.582,1.754,4.237
		c0,1.655-0.671,3.153-1.754,4.238c-1.085,1.085-2.582,1.755-4.236,1.755c-1.063,0-2.061-0.275-2.922-0.757
		c-0.893-0.5-1.646-1.225-2.185-2.099c-0.2-0.326-0.627-0.428-0.953-0.227c-0.326,0.2-0.428,0.627-0.228,0.953
		c0.659,1.071,1.589,1.963,2.693,2.581c1.065,0.596,2.291,0.935,3.594,0.935c2.036,0,3.881-0.826,5.216-2.161
		c1.335-1.336,2.161-3.181,2.161-5.219c0-2.038-0.825-3.882-2.161-5.218c-1.331-1.332-3.168-2.156-5.198-2.161h-0.018l0,0H324.563
		L324.563,195.52z M320.772,196.906c0.382,0,0.692-0.311,0.692-0.693c0-0.383-0.31-0.693-0.692-0.693h-2.263
		c-0.383,0-0.693,0.311-0.693,0.693c0,0.383,0.311,0.693,0.693,0.693H320.772z"/>
	<g>
		<path style="fill-rule:evenodd;clip-rule:evenodd;fill:#FFFFFF;" d="M260.87,274.858c0.634,0,1.15-0.518,1.15-1.151
			c0-0.635-0.517-1.151-1.15-1.151c-0.634,0-1.151,0.517-1.151,1.151C259.719,274.341,260.236,274.858,260.87,274.858z"/>
		<path style="fill-rule:evenodd;clip-rule:evenodd;fill:#FFFFFF;" d="M324.776,303.666c0.634,0,1.151-0.517,1.151-1.151
			c0-0.634-0.518-1.151-1.151-1.151c-0.634,0-1.151,0.518-1.151,1.151C323.625,303.149,324.143,303.666,324.776,303.666z"/>
		<path style="fill-rule:evenodd;clip-rule:evenodd;fill:#FFFFFF;" d="M118.926,133.192c0.634,0,1.151-0.517,1.151-1.151
			c0-0.634-0.517-1.151-1.151-1.151s-1.151,0.517-1.151,1.151C117.774,132.675,118.292,133.192,118.926,133.192z"/>
		<path style="fill-rule:evenodd;clip-rule:evenodd;fill:#FFFFFF;" d="M53.965,216.742c0.634,0,1.151-0.518,1.151-1.152
			c0-0.634-0.517-1.151-1.151-1.151c-0.634,0-1.151,0.517-1.151,1.151C52.813,216.224,53.331,216.742,53.965,216.742z"/>
		<path style="fill-rule:evenodd;clip-rule:evenodd;fill:#FFFFFF;" d="M363.584,145.852c0.635,0,1.151-0.517,1.151-1.151
			c0-0.634-0.517-1.151-1.151-1.151c-0.634,0-1.15,0.517-1.15,1.151C362.434,145.335,362.95,145.852,363.584,145.852z"/>
		<path style="fill-rule:evenodd;clip-rule:evenodd;fill:#FFFFFF;" d="M229.444,116.314c0.634,0,1.151-0.517,1.151-1.152
			c0-0.634-0.517-1.151-1.151-1.151c-0.634,0-1.151,0.517-1.151,1.151C228.293,115.797,228.81,116.314,229.444,116.314z"/>
		<path style="fill-rule:evenodd;clip-rule:evenodd;fill:#FFFFFF;" d="M191.479,204.926c0.634,0,1.151-0.517,1.151-1.151
			c0-0.634-0.517-1.151-1.151-1.151c-0.634,0-1.151,0.518-1.151,1.151C190.329,204.409,190.846,204.926,191.479,204.926z"/>
		<path style="fill-rule:evenodd;clip-rule:evenodd;fill:#FFFFFF;" d="M113.02,269.909c0.634,0,1.151-0.518,1.151-1.151
			c0-0.635-0.517-1.151-1.151-1.151c-0.634,0-1.151,0.517-1.151,1.151C111.869,269.392,112.386,269.909,113.02,269.909z"/>
		<path style="fill-rule:evenodd;clip-rule:evenodd;fill:#FFFFFF;" d="M134.111,366.961c0.634,0,1.151-0.518,1.151-1.151
			s-0.517-1.151-1.151-1.151c-0.634,0-1.151,0.518-1.151,1.151S133.477,366.961,134.111,366.961z"/>
		<path style="fill-rule:evenodd;clip-rule:evenodd;fill:#FFFFFF;" d="M68.307,333.204c0.634,0,1.151-0.518,1.151-1.151
			c0-0.635-0.517-1.151-1.151-1.151c-0.634,0-1.151,0.517-1.151,1.151C67.156,332.686,67.673,333.204,68.307,333.204z"/>
		<path style="fill-rule:evenodd;clip-rule:evenodd;fill:#FFFFFF;" d="M257.284,430.256c0.634,0,1.151-0.518,1.151-1.151
			c0-0.635-0.517-1.151-1.151-1.151c-0.634,0-1.15,0.517-1.15,1.151C256.134,429.738,256.65,430.256,257.284,430.256z"/>
		<path style="fill-rule:evenodd;clip-rule:evenodd;fill:#FFFFFF;" d="M258.972,342.487c0.634,0,1.151-0.518,1.151-1.151
			c0-0.635-0.517-1.151-1.151-1.151c-0.634,0-1.151,0.517-1.151,1.151C257.82,341.97,258.338,342.487,258.972,342.487z"/>
		<path style="fill-rule:evenodd;clip-rule:evenodd;fill:#FFFFFF;" d="M357.679,254.719c0.634,0,1.151-0.518,1.151-1.151
			c0-0.635-0.518-1.151-1.151-1.151c-0.634,0-1.15,0.517-1.15,1.151C356.528,254.201,357.045,254.719,357.679,254.719z"/>
		<path style="fill-rule:evenodd;clip-rule:evenodd;fill:#FFFFFF;" d="M378.77,192.268c0.634,0,1.15-0.518,1.15-1.152
			c0-0.634-0.517-1.151-1.15-1.151c-0.635,0-1.151,0.517-1.151,1.151C377.619,191.751,378.136,192.268,378.77,192.268z"/>
		<path style="fill-rule:evenodd;clip-rule:evenodd;fill:#FFFFFF;" d="M398.174,285.944c0.634,0,1.151-0.518,1.151-1.151
			c0-0.635-0.518-1.152-1.151-1.152s-1.15,0.518-1.15,1.152C397.023,285.427,397.54,285.944,398.174,285.944z"/>
		<path style="fill-rule:evenodd;clip-rule:evenodd;fill:#FFFFFF;" d="M325.62,221.805c0.634,0,1.151-0.517,1.151-1.151
			c0-0.634-0.518-1.151-1.151-1.151c-0.634,0-1.151,0.517-1.151,1.151C324.469,221.288,324.986,221.805,325.62,221.805z"/>
		<path style="fill-rule:evenodd;clip-rule:evenodd;fill:#FFFFFF;" d="M207.509,174.545c0.634,0,1.151-0.517,1.151-1.151
			c0-0.634-0.517-1.151-1.151-1.151c-0.634,0-1.151,0.517-1.151,1.151C206.358,174.028,206.875,174.545,207.509,174.545z"/>
		<path style="fill-rule:evenodd;clip-rule:evenodd;fill:#FFFFFF;" d="M181.356,123.909c0.634,0,1.151-0.517,1.151-1.151
			s-0.517-1.151-1.151-1.151c-0.634,0-1.151,0.517-1.151,1.151S180.722,123.909,181.356,123.909z"/>
		<path style="fill-rule:evenodd;clip-rule:evenodd;fill:#FFFFFF;" d="M73.004,197.331c1.827,0,3.317-1.49,3.317-3.318
			c0-1.828-1.49-3.318-3.317-3.318c-1.827,0-3.317,1.491-3.317,3.318C69.687,195.841,71.177,197.331,73.004,197.331z"/>
		<path style="fill-rule:evenodd;clip-rule:evenodd;fill:#FFFFFF;" d="M191.115,359.366c1.827,0,3.317-1.491,3.317-3.319
			c0-1.827-1.491-3.317-3.317-3.317c-1.828,0-3.317,1.49-3.317,3.317C187.798,357.875,189.288,359.366,191.115,359.366z"/>
		<path style="fill-rule:evenodd;clip-rule:evenodd;fill:#FFFFFF;" d="M272.949,315.481c1.827,0,3.317-1.491,3.317-3.318
			c0-1.828-1.49-3.318-3.317-3.318c-1.827,0-3.317,1.49-3.317,3.318C269.632,313.99,271.122,315.481,272.949,315.481z"/>
		<path style="fill-rule:evenodd;clip-rule:evenodd;fill:#FFFFFF;" d="M412.995,237.84c1.827,0,3.317-1.491,3.317-3.318
			c0-1.828-1.49-3.318-3.317-3.318c-1.827,0-3.317,1.491-3.317,3.318C409.678,236.349,411.168,237.84,412.995,237.84z"/>
		<path style="fill-rule:evenodd;clip-rule:evenodd;fill:#FFFFFF;" d="M375.031,343.331c1.826,0,3.316-1.49,3.316-3.318
			c0-1.827-1.49-3.318-3.316-3.318c-1.828,0-3.318,1.491-3.318,3.318C371.713,341.841,373.203,343.331,375.031,343.331z"/>
		<path style="fill-rule:evenodd;clip-rule:evenodd;fill:#FFFFFF;" d="M319.35,138.256c1.827,0,3.317-1.491,3.317-3.319
			s-1.49-3.318-3.317-3.318c-1.826,0-3.317,1.491-3.317,3.318S317.523,138.256,319.35,138.256z"/>
		<path style="fill-rule:evenodd;clip-rule:evenodd;fill:#FFFFFF;" d="M326.1,344.175c1.826,0,3.316-1.49,3.316-3.318
			c0-1.827-1.49-3.318-3.316-3.318c-1.828,0-3.318,1.491-3.318,3.318C322.781,342.685,324.271,344.175,326.1,344.175z"/>
		<path style="fill-rule:evenodd;clip-rule:evenodd;fill:#FFFFFF;" d="M313.444,415.909c1.827,0,3.317-1.491,3.317-3.318
			c0-1.827-1.49-3.318-3.317-3.318c-1.827,0-3.317,1.491-3.317,3.318C310.127,414.418,311.617,415.909,313.444,415.909z"/>
		<path style="fill-rule:evenodd;clip-rule:evenodd;fill:#FFFFFF;" d="M265.356,414.222c1.827,0,3.316-1.491,3.316-3.319
			c0-1.827-1.489-3.318-3.316-3.318c-1.827,0-3.317,1.491-3.317,3.318C262.039,412.73,263.529,414.222,265.356,414.222z"/>
	</g>
	<g>
		<g>
			<g>
				<path style="fill:#ECBC00;" d="M272.994,114.796l72.567,0.542c7.962,0.06,14.561,6.187,15.211,14.122l0,0
					c0.734,8.965-6.351,16.643-15.346,16.631l-70.561-0.094L272.994,114.796z"/>
				<path style="fill:#EB7300;" d="M289.53,129.461c0.517,8.616-6.049,16.019-14.665,16.536
					c-8.616,0.517-16.019-6.049-16.536-14.665c-0.517-8.616,6.049-16.019,14.665-16.536
					C281.61,114.28,289.013,120.845,289.53,129.461z"/>
				<path style="fill:#FFFFFF;" d="M292.126,114.872c0,0,10.454,2.155,10.322,13.455c-0.154,13.289-8.904,17.705-8.904,17.705
					l6.536,0.011c0,0,8.302-6.05,7.749-18.088c-0.531-11.55-8.564-13.121-8.564-13.121L292.126,114.872z"/>
				<path style="fill:#FFFFFF;" d="M329.794,115.176c0,0,10.454,2.155,10.323,13.455c-0.154,13.289-8.904,17.705-8.904,17.705
					l6.536,0.011c0,0,8.302-6.05,7.749-18.088c-0.531-11.55-9.322-13.06-9.322-13.06L329.794,115.176z"/>
			</g>
			<path style="fill:#5100A1;" d="M317.409,139.514l-26.981-0.687c-2.086-0.053-4.181,0.049-6.228,0.454
				c-13.034,2.578-22.755,14.065-22.755,27.731l-1.085,61.553c0,6.711,4.738,12.489,11.319,13.803l39.728,6.998L317.409,139.514z"/>
		</g>
		<g>
			<g>
				<g>
					<g>
						<path style="fill:#9E5F4C;" d="M337.455,141.125c0,0,9.175-1.428,11.141,4.479c2.098,6.304,10.094,55.462,10.094,55.462
							l-17.876,5.069L337.455,141.125z"/>
						<path style="fill:#9E5F4C;" d="M352.504,213.883l51.994-15.315l-3.711-10.951l-52.812,9.244
							c-4.874,0.902-8.052,5.636-7.041,10.488l0,0C342.024,212.576,347.465,215.649,352.504,213.883z"/>
					</g>
					<g>
						<path style="fill:#9E5F4C;" d="M412.808,200.393c-4.79,3.002-11.107,1.551-14.108-3.238
							c-3.001-4.79-1.551-11.107,3.239-14.108c4.79-3.001,11.107-1.551,14.108,3.239
							C419.048,191.075,417.598,197.391,412.808,200.393z"/>
						<path style="fill:#9E5F4C;" d="M409.409,181.695c0,0-1.203-4.509-5.959-2.015c-4.757,2.494-9.521,8.345-4.751,17.474
							L409.409,181.695z"/>
					</g>
				</g>
				<g>
					<g>
						<path style="fill:#21193A;" d="M423.292,149.319L281.505,432.229c-0.597,1.272,0.135,2.771,1.506,3.082l0,0
							c1.004,0.228,2.032-0.27,2.475-1.199l144.127-281.784c0.815-1.689,0.155-3.721-1.497-4.607l0,0
							C426.347,146.772,424.144,147.502,423.292,149.319z"/>
						<path style="fill:#21193A;" d="M413.321,159.456l2.267,8.806l-3.946,6.116l-1.398-14.38c-0.067-0.687,0.324-1.337,0.962-1.6
							l0,0C412.086,158.035,413.084,158.534,413.321,159.456z"/>
						<path style="fill:#624C87;" d="M429.991,150.622c0,1.914-1.552,3.466-3.466,3.466c-1.914,0-3.466-1.552-3.466-3.466
							c0-1.914,1.552-3.466,3.466-3.466C428.439,147.156,429.991,148.708,429.991,150.622z"/>
						<path style="fill:#624C87;" d="M413.416,159.819c0,0.885-0.717,1.602-1.602,1.602c-0.885,0-1.602-0.717-1.602-1.602
							c0-0.885,0.717-1.602,1.602-1.602C412.699,158.217,413.416,158.934,413.416,159.819z"/>
					</g>
					<path style="fill:#9E5F4C;" d="M413.416,183.995c0,0-1.602,5.07-9.475-0.712l-6.805,13.872c0,0,4.531,5.513,11.315,4.735
						C415.236,201.112,413.416,183.995,413.416,183.995z"/>
				</g>
			</g>
			<path style="fill:#FFFFFF;" d="M340.862,140.005c0,0,12.532-1.334,17.091,28.053l-21.389,4.747L340.862,140.005z"/>
		</g>
		<g>
			<g>
				<g>
					<g>
						<g>
							<polygon style="fill:#F8F9F9;" points="229.464,378.76 218.372,361.809 247.145,344.654 258.236,361.605 							"/>
							<g>
								<g>
									<defs>
										<path id="XMLID_19_" d="M221.343,360.371l14.407,22.019l4.21,22.788c0.499,4.747-1.699,9.375-5.694,11.989l0,0
											l-33.138-50.647l16.986-6.973C219.241,358.944,220.642,359.301,221.343,360.371z"/>
									</defs>
									<use xlink:href="#XMLID_19_"  style="overflow:visible;fill:#A55C42;"/>
									<clipPath id="XMLID_00000146481725109768380860000012328048399170750604_">
										<use xlink:href="#XMLID_19_"  style="overflow:visible;"/>
									</clipPath>
								</g>
								<path style="fill:#A55C42;" d="M236.092,384.667l2.578-6.944c0.616-1.658,0.254-3.536-0.974-4.809
									c-1.782-1.848-4.931-3.412-9.587,0.197L236.092,384.667z"/>
							</g>
						</g>
						
							<rect x="185.784" y="390.951" transform="matrix(-0.5475 -0.8368 0.8368 -0.5475 6.0158 788.5275)" style="fill:#020201;" width="60.833" height="3.372"/>
						
							<rect x="192.816" y="376.518" transform="matrix(-0.5475 -0.8368 0.8368 -0.5475 2.2828 759.0732)" style="fill:#020201;" width="27.111" height="4.802"/>
						
							<rect x="222.341" y="410.719" transform="matrix(-0.5475 -0.8368 0.8368 -0.5475 8.2916 830.7228)" style="fill:#020201;" width="12.814" height="4.802"/>
						
							<rect x="213.11" y="396.61" transform="matrix(-0.5475 -0.8368 0.8368 -0.5475 5.82 801.1679)" style="fill:#020201;" width="12.815" height="4.802"/>
					</g>
					<path style="fill:#4B79D6;" d="M328.841,317.296l-80.456,53.394l-20.065-24.73l82.165-54.979
						c6.824-5.064,16.432-3.845,21.853,2.699l0,0C338.424,301.027,336.795,312.029,328.841,317.296z"/>
				</g>
				<path style="fill:#4B79D6;" d="M337.824,199.45c0,0,11.999,43.664-1.132,105.657l-24.402-78.244l-8.884-30.301L337.824,199.45z"
					/>
			</g>
			<g>
				<g>
					<g>
						<polygon style="fill:#F8F9F9;" points="339.391,417.093 319.22,418.967 317.517,385.511 337.688,383.638 						"/>
						<g>
							<g>
								<defs>
									<path id="XMLID_18_" d="M319.339,415.669l26.2-2.434l22.11,6.939c4.429,1.78,7.492,5.887,7.933,10.64l0,0l-60.265,5.597
										l1.783-18.275C317.094,416.859,318.066,415.787,319.339,415.669z"/>
								</defs>
								<use xlink:href="#XMLID_18_"  style="overflow:visible;fill:#A55C42;"/>
								<clipPath id="XMLID_00000111151282660875021790000009065972096087360668_">
									<use xlink:href="#XMLID_18_"  style="overflow:visible;"/>
								</clipPath>
							</g>
							<path style="fill:#A55C42;" d="M347.712,413.998l-4.932-5.526c-1.178-1.32-3.006-1.879-4.706-1.389
								c-2.467,0.711-5.323,2.763-4.31,8.566L347.712,413.998z"/>
						</g>
					</g>
					
						<rect x="315.036" y="433.62" transform="matrix(-0.9957 0.0925 -0.0925 -0.9957 729.6808 836.801)" style="fill:#020201;" width="60.833" height="3.372"/>
					
						<rect x="315.174" y="435.177" transform="matrix(-0.9957 0.0925 -0.0925 -0.9957 696.5168 842.8801)" style="fill:#020201;" width="27.112" height="4.802"/>
					
						<rect x="363.018" y="431.397" transform="matrix(-0.9957 0.0925 -0.0925 -0.9957 777.3878 831.5688)" style="fill:#020201;" width="12.815" height="4.802"/>
					
						<rect x="346.229" y="432.956" transform="matrix(-0.9957 0.0925 -0.0925 -0.9957 744.0266 836.2336)" style="fill:#020201;" width="12.815" height="4.802"/>
				</g>
				<g>
					<path style="fill:#4B79D6;" d="M337.464,311.127l6.103,87.596l-31.381,5.22l-6.563-88.872
						c-1.292-8.399,4.274-16.326,12.592-18.064l0,0C327.552,295.056,336.52,301.634,337.464,311.127z"/>
					<g>
						<path style="fill:#4B79D6;" d="M303.407,196.562c0,0-20.991,9.063-27.558,33.689c-4.926,18.474,18.296,65.454,29.266,85.995
							c3.541,6.631,11.039,10.124,18.397,8.587l0,0c9.033-1.887,14.893-10.658,13.18-19.725L315.22,197.858L303.407,196.562z"/>
						<polyline style="fill:none;stroke:#1526BF;stroke-width:1.7036;stroke-miterlimit:10;" points="333.228,239.999 
							326.416,253.778 336.693,305.107 						"/>
						<polyline style="fill:none;stroke:#1526BF;stroke-width:1.7036;stroke-miterlimit:10;" points="296.2,300.54 304.607,315.291 
							306.081,332.401 						"/>
					</g>
				</g>
			</g>
		</g>
		<g>
			<g>
				<g>
					<path style="fill:#9E5F4C;" d="M287.374,146.596l-26.999,47.369c-2.358,4.164-0.92,9.45,3.222,11.846l0,0
						c3.874,2.241,8.816,1.185,11.436-2.444l30.465-45.146c3.495-4.841,2.391-11.601-2.464-15.078l0,0
						C297.825,139.413,290.532,141.021,287.374,146.596z"/>
					<path style="fill:#9E5F4C;" d="M259.236,196.38l-18.489,53.109l9.007,4.29l25.624-50.352c2.327-4.376,0.598-9.81-3.829-12.037
						l0,0C266.78,188.989,260.989,191.336,259.236,196.38z"/>
					<path style="fill:#9E5F4C;" d="M240.748,249.488c-0.707,0.177-8.703,9.073-12.618,20.662c-0.436,1.29,0.079,2.774,1.314,3.348
						c0.592,0.275,1.3,0.318,2.075-0.199c2.215-1.477,14.028-12.921,14.028-12.921l0.753,4.898c0.243,1.581,1.749,2.714,3.313,2.379
						c0.364-0.078,0.64-0.216,0.733-0.447c0.369-0.923,2.4-13.29-0.923-17.72H240.748z"/>
				</g>
				<path style="fill:#FFFFFF;" d="M302.974,139.35c-1.345,0.316-14.093-4.095-26.559,22.125l24.811,12.579l14.759-24.656
					L302.974,139.35z"/>
			</g>
			<g>
				<path style="fill:#FFFFFF;" d="M344.187,153.934v-11.413c0-1.005-0.682-1.875-1.655-2.125c-1.461-0.375-3.039-0.689-4.636-0.952
					c-0.191-0.044-0.385-0.079-0.583-0.095c-0.009-0.001-0.02-0.002-0.029-0.002c-6.669-1.042-13.473-1.216-13.473-1.216
					l-9.424-1.465L294,141.459c-1.876,0.441-3.029,2.332-2.561,4.202l5.98,23.897c2.939,13.367-11.675,40.638-11.351,40.827
					c47.488,27.843,54.679,2.423,54.679,2.423l1.699-33.725v0c0,0,6.879-3.979,7.294-12.48
					C349.967,161.955,346.96,157.249,344.187,153.934z M344.187,153.934c-0.041-0.049-0.082-0.099-0.124-0.148
					c-0.001-0.007-0.001-0.014-0.002-0.021C344.137,153.867,344.186,153.934,344.187,153.934z"/>
				<path style="fill:#5100A1;" d="M292.319,196.562l0.719-4.095c6.953-7.776,13.633-20.982,11.171-34.415
					c-1.874-10.219-5.897-18.729-5.949-18.803l5.492-0.081C303.978,139.493,320.549,171.508,292.319,196.562z"/>
				<path style="fill:#5100A1;" d="M345.837,156.059l-1.65-2.124c0.706-8.63-5.334-14.208-5.472-14.35l3.749,0.569
					C342.663,140.345,346.725,145.204,345.837,156.059z"/>
			</g>
		</g>
		<g>
			<g>
				<path style="fill:#FFFFFF;" d="M316.549,77.785l-3.711,1.414c-0.786,0.299-1.666-0.095-1.965-0.881l-0.319-0.837
					c-0.299-0.786,0.095-1.666,0.881-1.965l3.711-1.414c0.786-0.299,1.666,0.095,1.965,0.881l0.319,0.837
					C317.73,76.606,317.335,77.486,316.549,77.785z"/>
			</g>
			<path style="fill:#230070;" d="M307.432,113.393c-2.754-2.666-5.508-5.332-8.262-7.997c-1.56,0.515-3.488-0.59-4.154-2.092
				c-0.666-1.502-0.021-3.459,1.408-4.271c-2.025-0.573-3.535-2.417-3.605-4.52s1.339-4.174,3.322-4.881
				c-0.62,0.077-1.211-0.368-1.452-0.945c-0.241-0.577-0.053-1.303,0.438-1.69c0.285-0.031,0.57-0.061,0.855-0.092
				c-2.082-1.848-2.418-5.091-1.367-7.668c1.051-2.577,3.825-4.344,6.605-4.209c-0.559-1.028-0.619-1.715,0.203-2.547
				c0.823-0.832,2.204-1.045,3.239-0.498c-0.701-2.105-0.186-4.368,1.388-5.931c1.574-1.563,4.057-2.136,6.157-1.42
				c2.1,0.715,3.716,2.685,4.008,4.884c0.062-0.877,0.694-1.652,1.57-1.731c0.863-0.078,1.714,0.517,1.957,1.339
				c-0.742-1.506,0.629-3.32,1.848-4.109c1.449-0.938,3.513-1.135,5.15-0.657c2.162,0.631,5.142,3.307,4.375,5.844
				c-0.268,0.13-0.335,0.156-0.604,0.286c0.706-0.558,1.499-1.145,2.397-1.099c0.898,0.046,1.725,1.132,1.187,1.853
				c0.4-1.822,2.79-2.854,4.634-2.571c1.844,0.283,3.346,1.87,3.766,3.688c0.42,1.818-0.149,3.78-1.277,5.266
				c0.876,0.144,1.345,1.292,1.256,2.176c-0.089,0.884-0.938,1.621-1.826,1.586"/>
			<path style="fill:#230070;" d="M321.516,75.886c0,0-32.688,3.466-18.673,31.718c2.207,4.449,5.497,8.323,9.722,10.931
				c1.97,1.216,4.181,2.213,6.323,2.402c6.117,0.54,6.594-38.184,6.594-38.184l2.066-2.486l-5.856-3.624"/>
			<polygon style="fill:#9E5F4C;" points="330.048,118.543 328.72,139.996 311.029,139.585 315.297,113.263 			"/>
			<polygon style="fill:#854633;" points="314.583,117.67 329.037,134.868 330.26,115.33 			"/>
			<path style="fill:#9E5F4C;" d="M311.734,90.726v17.316c0,9.78,7.928,17.708,17.708,17.708h0.84c7.206,0,13.23-5.476,13.912-12.65
				c0.315-3.307,0.63-7.07,0.887-11.049c0.839-13.003-7.34-19.714-7.34-19.714L311.734,90.726z"/>
			<path style="fill:#230070;" d="M313.795,105.7c0.046-2.57,0.092-5.14,0.138-7.71c0.021,1.518,1.865,2.559,3.312,2.102
				c1.448-0.458,2.352-1.996,2.468-3.509c0.116-1.514-0.412-3.002-1.053-4.379c1.389,0.843,2.854,1.63,4.456,1.898
				s3.38-0.056,4.541-1.192c1.161-1.136,1.47-3.171,0.418-4.408c1.215,1.15,2.455,2.318,3.96,3.049
				c1.505,0.73,3.344,0.967,4.838,0.214s2.426-2.675,1.732-4.198c0.963,0.341,1.451,1.378,2.097,2.17
				c0.646,0.792,1.929,1.366,2.627,0.619c0.401-0.43,0.388-1.093,0.32-1.677c-0.369-3.175-1.653-6.238-3.657-8.727
				c-6.709,0.536-13.608,1.246-20.201,2.6c-3.126,0.642-6.384,1.452-8.737,3.608c-3.134,2.872-3.905,7.995-1.755,11.663"/>
			<path style="fill:#849C2F;" d="M337.631,83.934c-6.873-0.914-14.066,0.576-19.934,4.13c-5.868,3.554-10.367,9.143-12.468,15.491
				c-0.287-8.532,4.292-17.983,11.889-22.42c7.598-4.436,17.69-4.613,25.451-0.445c0.956,1.676,1.379,3.474,0.871,5.322"/>
			<path style="fill:#9E5F4C;" d="M316.655,104.043c0,3.075-2.493,5.568-5.568,5.568c-3.075,0-5.568-2.493-5.568-5.568
				c0-3.075,2.493-5.568,5.568-5.568C314.162,98.475,316.655,100.968,316.655,104.043z"/>
			<g>
				
					<polyline style="fill:none;stroke:#1F191A;stroke-width:1.0731;stroke-linecap:round;stroke-linejoin:round;stroke-miterlimit:10;" points="
					336.618,108.715 337.157,112.516 335.137,112.679 				"/>
				<path style="fill:#1F191A;" d="M327.132,100.147c0,0,3.339-0.426,3.433,0.981c0,0,0.038,0.954-2.878,1.267
					c-2.916,0.313-3.685,0.125-3.99-0.76C323.391,100.75,325.561,100.222,327.132,100.147z"/>
				<path style="fill:#1F191A;" d="M341.159,99.955c0,0-2.779-0.177-2.949,1.155c0,0-0.093,0.901,2.337,1.001
					c2.43,0.099,3.205-0.252,3.403-0.985C344.175,100.296,342.475,99.92,341.159,99.955z"/>
				<path style="fill:#1F191A;" d="M339.454,106.764c0.009,0.803,0.646,1.449,1.424,1.442c0.778-0.007,1.401-0.663,1.392-1.466
					c-0.008-0.803-0.646-1.449-1.424-1.442C340.069,105.305,339.445,105.962,339.454,106.764z"/>
				<path style="fill:#1F191A;" d="M327.111,106.864c0.008,0.803,0.646,1.448,1.424,1.442c0.778-0.007,1.401-0.663,1.392-1.466
					c-0.009-0.803-0.646-1.449-1.424-1.442C327.726,105.405,327.102,106.061,327.111,106.864z"/>
				<path style="fill:#FFFFFF;" d="M330.26,114.773h8.468c0,0-0.32,3-4.234,3.058C331.061,117.882,330.26,114.773,330.26,114.773z"
					/>
			</g>
			
				<path style="fill:none;stroke:#1F191A;stroke-width:1.0731;stroke-linecap:round;stroke-linejoin:round;stroke-miterlimit:10;" d="
				M309.878,101.854c0,0,3.183-0.003,2.824,3.544"/>
			<path style="fill:#9E5F4C;" d="M311.388,137.372c0,0-4.474,2.021,4.596,12.026c9.071,10.005,21.056,3.555,16.073-6.013
				c-4.983-9.568-8.08-8.517-8.08-8.517L311.388,137.372z"/>
		</g>
	</g>
	<g>
		<g>
			<g>
				<path style="fill:#4B79D6;" d="M218.066,113.26c0,0-26.292-8.586-89.265-1.055l-5.287,35.556c0,0,23.504,2.319,87.326-0.676
					c5.788,1.02,12.09-6.117,14.075-15.939C226.901,121.322,223.853,114.279,218.066,113.26z"/>
				<path style="fill:#3F1E73;" d="M137.59,131.821c-1.986,9.822-8.287,16.959-14.075,15.939c-5.788-1.019-8.87-9.808-6.885-19.631
					c1.986-9.822,8.287-16.959,14.075-15.939C136.493,113.21,139.575,121.998,137.59,131.821z"/>
				<path style="fill:#4B79D6;" d="M124.801,141.538c-0.413,0.007-0.814-0.048-1.198-0.17c-1.672-0.528-4.241-2.697-2.662-11.287
					c1.618-8.806,5.659-12.872,8.764-14.73c3.425-2.051,6.454-1.958,6.583-1.949c0.407,0.016,0.723,0.337,0.706,0.717
					c-0.018,0.38-0.351,0.686-0.767,0.659c-0.445,0-10.943-0.183-13.83,15.536c-1.18,6.424,0.095,9.248,1.681,9.749
					c1.865,0.591,4.689-1.496,6.575-4.851c1.966-3.649,4.27-9.959,2.058-11.312c-0.338-0.207-0.648-0.246-1.001-0.126
					c-1.877,0.631-4.01,5.192-4.914,7.92c-0.12,0.364-0.533,0.568-0.923,0.454c-0.389-0.112-0.607-0.498-0.487-0.861
					c0.261-0.789,2.647-7.741,5.824-8.809c0.789-0.265,1.588-0.17,2.309,0.271c4.025,2.461-0.971,12.013-1.553,13.093
					C130.001,139.332,127.21,141.495,124.801,141.538z"/>
			</g>
			<g>
				<path style="fill:#5100A1;" d="M127.555,172.019c0,0-18.067,76.606,9.642,81.644c43.892,7.979,32.63-42.855,32.63-42.855
					l-3.241-43.719L127.555,172.019z"/>
				<path style="fill:#5100A1;" d="M182.137,131.271c0,0-68.364-9.356-64.412,47.21c0.27,3.869,1.839,7.711,5.872,9.018
					c5.035,1.633,13.731,1.99,28.379-3.111L182.137,131.271z"/>
			</g>
		</g>
		<g>
			<g>
				<g>
					<g>
						<g>
							<polygon style="fill:#F8F9F9;" points="97.941,389.338 86.058,371.175 116.886,352.794 128.77,370.957 							"/>
							<g>
								<g>
									<defs>
										<path id="XMLID_2_" d="M89.24,369.635l15.436,23.592l4.51,24.416c0.535,5.087-1.82,10.045-6.1,12.846l0,0l-35.506-54.266
											l18.199-7.471C86.988,368.105,88.49,368.488,89.24,369.635z"/>
									</defs>
									<use xlink:href="#XMLID_2_"  style="overflow:visible;fill:#A55C42;"/>
									<clipPath id="XMLID_00000036961019107950417190000001151633247882413977_">
										<use xlink:href="#XMLID_2_"  style="overflow:visible;"/>
									</clipPath>
								</g>
								<path style="fill:#A55C42;" d="M105.043,395.667l2.762-7.44c0.66-1.777,0.272-3.788-1.043-5.152
									c-1.91-1.98-5.284-3.656-10.272,0.211L105.043,395.667z"/>
							</g>
						</g>
						
							<rect x="51.141" y="402.4" transform="matrix(-0.5475 -0.8368 0.8368 -0.5475 -208.6642 695.5805)" style="fill:#020201;" width="65.18" height="3.613"/>
						
							<rect x="58.675" y="386.936" transform="matrix(-0.5475 -0.8368 0.8368 -0.5475 -212.6626 664.0227)" style="fill:#020201;" width="29.049" height="5.145"/>
						
							<rect x="90.31" y="423.58" transform="matrix(-0.5475 -0.8368 0.8368 -0.5475 -206.2246 740.7914)" style="fill:#020201;" width="13.73" height="5.145"/>
						
							<rect x="80.419" y="408.463" transform="matrix(-0.5475 -0.8368 0.8368 -0.5475 -208.8758 709.1254)" style="fill:#020201;" width="13.73" height="5.145"/>
					</g>
					<path style="fill:#849C2F;" d="M204.42,323.482l-86.205,57.21l-21.499-26.497l88.036-58.908
						c7.311-5.426,17.606-4.119,23.415,2.892l0,0C214.688,306.05,212.942,317.838,204.42,323.482z"/>
				</g>
				<path style="fill:#849C2F;" d="M194.034,250.145l18.799,60.277c4.822-22.764,6.48-43.22,6.578-60.277H194.034z"/>
			</g>
			<g>
				<g>
					<g>
						<polygon style="fill:#F8F9F9;" points="215.724,430.41 194.112,432.417 192.287,396.571 213.899,394.564 						"/>
						<g>
							<g>
								<defs>
									<path id="XMLID_1_" d="M194.24,428.884l28.072-2.607l23.69,7.435c4.746,1.907,8.027,6.308,8.5,11.401l0,0l-64.571,5.997
										l1.91-19.58C191.834,430.159,192.875,429.011,194.24,428.884z"/>
								</defs>
								<use xlink:href="#XMLID_1_"  style="overflow:visible;fill:#A55C42;"/>
								<clipPath id="XMLID_00000151507097802788303790000000132010402506618790_">
									<use xlink:href="#XMLID_1_"  style="overflow:visible;"/>
								</clipPath>
							</g>
							<path style="fill:#A55C42;" d="M224.64,427.094l-5.284-5.921c-1.262-1.414-3.221-2.013-5.042-1.488
								c-2.643,0.762-5.703,2.96-4.618,9.178L224.64,427.094z"/>
						</g>
					</g>
					
						<rect x="189.628" y="448.118" transform="matrix(-0.9957 0.0925 -0.0925 -0.9957 485.0933 877.3715)" style="fill:#020201;" width="65.18" height="3.613"/>
					
						<rect x="189.777" y="449.786" transform="matrix(-0.9957 0.0925 -0.0925 -0.9957 449.5585 883.8854)" style="fill:#020201;" width="29.049" height="5.145"/>
					
						<rect x="241.039" y="445.736" transform="matrix(-0.9957 0.0925 -0.0925 -0.9957 536.2096 871.7668)" style="fill:#020201;" width="13.73" height="5.145"/>
					
						<rect x="223.051" y="447.407" transform="matrix(-0.9957 0.0925 -0.0925 -0.9957 500.4645 876.7649)" style="fill:#020201;" width="13.73" height="5.145"/>
				</g>
				<g>
					<path style="fill:#849C2F;" d="M213.659,316.872l6.539,93.855l-33.624,5.593l-7.032-95.223
						c-1.384-8.999,4.579-17.492,13.492-19.354l0,0C203.04,299.652,212.648,306.701,213.659,316.872z"/>
					<g>
						<path style="fill:#849C2F;" d="M200.764,250.145h-52.036c5.385,23.517,21.489,55.768,30.271,72.211
							c3.794,7.105,11.828,10.847,19.712,9.2c9.678-2.022,15.957-11.419,14.122-21.134L200.764,250.145z"/>
						<path style="fill:none;stroke:#5F7022;stroke-width:1.8254;stroke-miterlimit:10;" d="M203.359,252.314
							c-0.638,0.656-1.638,1.656-1.638,2.656c3,19,8,36,11.111,55.451"/>
						<polyline style="fill:none;stroke:#5F7022;stroke-width:1.8254;stroke-miterlimit:10;" points="169.447,305.528 
							178.455,321.333 180.034,339.666 						"/>
					</g>
				</g>
			</g>
		</g>
		<g>
			<g>
				<g>
					<g>
						<path style="fill:#FDB5A4;" d="M285.254,190.013l-69.506,7.654c-6.838-1.62-13.642,2.802-14.939,9.708l0,0
							c-1.312,6.984,3.545,13.626,10.598,14.493l69.018-17.611L285.254,190.013z"/>
						<g>
							<path style="fill:#FDB5A4;" d="M278.853,207.993c-6.386-2.835-9.264-10.31-6.43-16.695c2.835-6.386,10.309-9.265,16.695-6.43
								c6.386,2.835,9.264,10.31,6.43,16.695C292.714,207.949,285.239,210.828,278.853,207.993z"/>
							<path style="fill:#FDB5A4;" d="M290.977,192.051c0,0,4.354-5.124-1.488-8.274c-5.843-3.151-11.007-3.675-17.065,7.521
								L290.977,192.051z"/>
						</g>
					</g>
					<g>
						<g>
							<g>
								<path style="fill:#21193A;" d="M312.031,96.126c-1.809-0.56-3.716,0.513-4.178,2.349l-81.459,319.156l3.992,1.672
									l83.862-319.183C314.698,98.41,313.721,96.648,312.031,96.126z"/>
								<path style="fill:#21193A;" d="M318.005,110.848l-10.548,5.203l-2.67,9.027l15.281-10.756
									c0.73-0.514,1.038-1.445,0.758-2.293l0,0C320.44,110.86,319.11,110.303,318.005,110.848z"/>
								<path style="fill:#624C87;" d="M314.29,98.473c0.345,1.772-0.812,3.489-2.584,3.834c-1.772,0.345-3.489-0.812-3.834-2.584
									c-0.345-1.772,0.812-3.489,2.584-3.834C312.228,95.544,313.945,96.701,314.29,98.473z"/>
								<path style="fill:#624C87;" d="M317.569,111.061c-0.868,0.746-0.966,2.055-0.22,2.923c0.746,0.868,2.055,0.966,2.922,0.22
									c0.868-0.746,0.966-2.055,0.22-2.922C319.745,110.414,318.437,110.315,317.569,111.061z"/>
							</g>
						</g>
						<path style="fill:#FDB5A4;" d="M291.769,185.676c0,0-1.288,6.995-8.607,4.638l-5.42,17.116c0,0,7.027,3.595,12.488,0
							c5.461-3.595,3.228-16.161,3.228-16.161L291.769,185.676z"/>
					</g>
				</g>
				<g>
					<g>
						<path style="fill:#FFFFFF;" d="M191.896,150.946c-1.555-7-7.187-18.135-0.329-20.227c7.404-2.258,22.731,2.978,26.976,13.625
							c2.052,5.148,2.662,14.793,3.838,24.848l-28.216,1.768L191.896,150.946z"/>
						<path style="fill:#FDB5A4;" d="M194.035,169.918l28.216-1.768c1.556,13.311,3.065,27.692,5.063,35.079
							c2.253,8.331-3.081,16.809-11.565,18.388h0c-7.831,1.458-15.409-3.551-17.136-11.328L194.035,169.918z"/>
					</g>
					<path style="fill:#5100A1;" d="M200.558,130.507c0,0,14.673,6.664,16.62,60.761c0,0,2.175-15.721,1.905-24.471
						c0,0,0.023-13.55-5.891-27.993C211.107,133.713,203.511,130.803,200.558,130.507z"/>
				</g>
			</g>
			<path style="fill:#FFFFFF;" d="M184.419,126.555l-29.557,6.1c-2.638,0.544-4.53,2.867-4.53,5.56l-2.029,112.23h72.935
				l-5.755-81.831c-0.574-7.707-7.42-36.269-14.926-38.107L184.419,126.555z"/>
			<g>
				<g>
					<g>
						<g>
							<g>
								<path style="fill:#FDB5A4;" d="M135.038,169.4l3.639,51.174c0.407,5.717,4.862,10.445,10.606,11.253l0,0
									c7,0.984,13.19-4.156,13.393-11.12l1.478-50.921L135.038,169.4z"/>
							</g>
						</g>
						<g>
							<g>
								<path style="fill:#FDB5A4;" d="M159.818,208.592c19.01,14.833,51.907,40.108,51.907,40.108l-5.727,13.634l-60.586-31.949
									c-7.268-4.027-8.999-13.715-3.577-20.011l0,0C146.398,205.079,154.308,204.292,159.818,208.592z"/>
							</g>
							<g>
								<path style="fill:#FDB5A4;" d="M205.735,268.724c-5.305-4.054-6.32-11.641-2.266-16.946
									c4.054-5.305,11.641-6.32,16.946-2.266c5.305,4.054,6.32,11.641,2.266,16.946
									C218.627,271.763,211.04,272.777,205.735,268.724z"/>
								<path style="fill:#FDB5A4;" d="M225.006,257.215c0,0,4.488-3.199-0.242-7.426c-4.73-4.227-13.177-7.071-21.295,1.989
									L225.006,257.215z"/>
							</g>
						</g>
					</g>
					<path style="fill:#FFFFFF;" d="M154.862,132.655c0,0-27.848,1.606-23.961,59.948l38.908-3.58L154.862,132.655z"/>
				</g>
				<path style="fill:#5100A1;" d="M174.521,159.33c-1.878-17.353-8.746-28.927-8.746-28.927s-4.376-0.596-10.913,2.252
					c0,0,19.872,29.125,8.451,56.966l0.004,9.005C163.316,198.626,176.641,178.927,174.521,159.33z"/>
			</g>
		</g>
		<g>
			<path style="fill:#ECBC00;" d="M205.5,72.63l-40.79,13.98c0,0-0.92-2.46-1.21-5.9c-0.49-5.9,0.87-14.72,11.88-19.13
				c9.27-3.72,15.12-3.49,18.56-2.45c2.15,0.64,3.98,2.11,5.25,4.01l3.45,5.19L205.5,72.63z"/>
			<path style="fill:#EB7300;" d="M205.5,72.63l-40.79,13.98c0,0-0.92-2.46-1.21-5.9c15.64-11.72,32.39-12.58,39.14-12.38
				L205.5,72.63z"/>
			<path style="fill:#ECBC00;" d="M219.77,76.299c2.01,5.984-11.65,15.97-30.511,22.304c-18.861,6.334-35.779,6.618-37.789,0.633
				c-2.01-5.984,11.65-15.97,30.511-22.304C200.842,70.599,217.761,70.315,219.77,76.299z"/>
			<g>
				<path style="fill:#FD9177;" d="M196.857,97.988c-0.122,3.523,2.636,6.478,6.159,6.599c3.523,0.122,6.478-2.635,6.6-6.159
					c0.122-3.523-2.635-6.478-6.159-6.599C199.933,91.707,196.979,94.465,196.857,97.988z"/>
				<path style="fill:#FDB5A4;" d="M195.45,107.869l-0.46,22.751c-0.169,6.396-4.573,6.724-10.867,6.507l0,0
					c-5.373-0.186-9.917-1.918-10.399-7.273l-0.335-24.616L195.45,107.869z"/>
				<path style="fill:#FDB5A4;" d="M184.512,116.577l8.92,0.308c6.698,0.231,12.256-5.13,12.268-11.831l0.031-16.45
					c0.014-8.399-6.227-13.273-14.621-13.563l0,0c-8.594-0.297-17.718,4.354-18.015,12.948l0.295,17.249
					C173.483,111.377,178.375,116.365,184.512,116.577z"/>
				<g>
					
						<polyline style="fill:none;stroke:#1E1B1C;stroke-width:0.8294;stroke-linecap:round;stroke-linejoin:round;stroke-miterlimit:10;" points="
						198.341,98.74 198.576,102.082 196.531,102.012 					"/>
					<path style="fill:#000402;" d="M200.566,97.13c-0.025,0.737,0.551,1.355,1.289,1.381c0.737,0.025,1.355-0.551,1.381-1.289
						c0.025-0.737-0.551-1.355-1.289-1.381C201.209,95.816,200.591,96.393,200.566,97.13z"/>
					<path style="fill:#000402;" d="M189.775,96.757c-0.025,0.737,0.551,1.355,1.289,1.381c0.737,0.026,1.355-0.551,1.381-1.288
						c0.025-0.737-0.551-1.355-1.289-1.381C190.419,95.443,189.801,96.02,189.775,96.757z"/>
					<path style="fill:#91315E;" d="M189.989,89.104c0,0,3.46-0.401,3.477,1.446c0,0-0.015,1.251-3.033,1.524
						c-3.018,0.273-3.799-0.01-4.063-1.183S188.368,89.13,189.989,89.104z"/>
					<path style="fill:#91315E;" d="M202.415,89.432c0,0-2.85-0.362-3.099,1.375c0,0-0.147,1.176,2.348,1.42
						c2.495,0.244,3.312-0.179,3.557-1.13C205.499,90.02,203.771,89.449,202.415,89.432z"/>
				</g>
				<path style="fill:#91315E;" d="M181.251,89.4c0,0-1.205,13.21,3.169,15.837c4.374,2.627,9.046-3.982,21.281-0.183
					c0,0,2.658,13.54-13.674,14.57c-25.08,1.581-14.184-26.208-14.184-26.208L181.251,89.4z"/>
				<path style="fill:#FFFFFF;" d="M191.301,107.266l8.297,1.694c0,0-1.186,4.212-5.038,3.511
					C191.181,111.857,191.301,107.266,191.301,107.266z"/>
				<path style="fill:#91315E;" d="M181.251,89.4c0,0,5.243-3.13,3.169-7.738c0,0,12.725,3.333,19.688,0
					c0,0-0.573-6.602-14.201-6.994c-13.627-0.392-17.758,11.21-17.758,11.21v5.947l5.489,4.016L181.251,89.4z"/>
				<g>
					<path style="fill:#FDB5A4;" d="M165.081,97.219c-0.122,3.523,2.635,6.478,6.158,6.6c3.523,0.122,6.478-2.636,6.6-6.159
						c0.122-3.523-2.636-6.478-6.159-6.6C168.157,90.939,165.202,93.696,165.081,97.219z"/>
					
						<path style="fill:none;stroke:#1E1B1C;stroke-width:0.8294;stroke-linecap:round;stroke-linejoin:round;stroke-miterlimit:10;" d="
						M173.623,99.414c0,0,0.16-4.625-4.288-4.05"/>
				</g>
			</g>
			<path style="fill:#ECBC00;" d="M163.386,92.992c0,0,4.879-8.172,22.459-13.846c17.581-5.674,27.214,3.789,27.214,3.789
				l-8.18-10.846c0,0-24.339-0.863-41.561,14.524C146.747,101.418,163.386,92.992,163.386,92.992z"/>
		</g>
	</g>
	<g>
		<rect x="478.954" style="fill-rule:evenodd;clip-rule:evenodd;fill:#153257;" width="21.046" height="445.988"/>
		<path style="fill-rule:evenodd;clip-rule:evenodd;fill:#153257;" d="M500,0h-10.163c-0.102,0.881-0.155,1.776-0.155,2.684v299.689
			c0,8.036,4.104,15.159,10.319,19.375V0z"/>
		<path style="fill-rule:evenodd;clip-rule:evenodd;fill:#153257;" d="M482.462,134.311c2.491,0,4.512-2.021,4.512-4.516
			c0-2.492-2.021-4.515-4.512-4.515h-21.304c-1.365,0-7.87-1.259-12.815-10.485c-3.07-5.728-5.365-14.359-5.365-27.337V69.924h3.832
			c1.456,0,8.255-1.092,12.541-9.09c2.123-3.96,3.709-9.696,3.709-17.975V0h-7.52v42.859c0,6.909-1.197,11.46-2.798,14.447
			c-2.401,4.481-5.324,5.093-5.933,5.093h-3.832V0h-9.023v41.538h-2.205c-0.692,0-4.003-0.66-6.593-5.492
			c-1.653-3.085-2.889-7.754-2.889-14.801V0h-6.016v21.245c0,8.142,1.547,13.76,3.617,17.622c4.098,7.646,10.509,8.69,11.88,8.69
			h2.205v39.901c0,14.62,2.763,24.677,6.456,31.569c7.207,13.446,18.364,15.283,20.746,15.283H482.462z"/>
	</g>
	<g>
		<g>
			<path style="fill-rule:evenodd;clip-rule:evenodd;fill:#1E2A6D;" d="M0.339,30.371c0.102-0.37,0.203-0.743,0.3-1.12
				c2.791-10.78,8.646-0.365,5.128,7.096c-1.674,3.551-3.685,6.582-5.429,9.063v14.662c4.669,5.779,9.166,11.765,13.422,17.787
				l0.003,0.001c0,0,1.343,1.549,1.817-1.445c0.473-2.993,2.788-13.768,7.492-17.105c4.705-3.337,4.698,7.183-0.099,15.11
				c-4.797,7.928-5.184,9.245-4.572,10.154h0c4.061,6.014,7.858,11.999,11.323,17.784l0,0c0,0,0.892,0.883,1.379-0.409
				c0.487-1.294,2.875-13.338,7.093-14.636c4.218-1.297,4.515,7.608-0.049,13.428c-4.564,5.818-5.182,7.132-4.677,8.018
				l-0.001,0.001c9.9,17.324,16.401,32.138,17.519,39.389c1.164,7.554,8.292-15.16,9.192-46.044
				c0.013-2.765-0.759-3.912-2.991-5.979c-2.385-2.21-6.814-7.758-3.8-7.617c3.015,0.141,6.392,5.317,6.63,5.315
				c0.181-0.002,0.23-0.139,0.244-0.203c-0.052-5.397-0.311-10.965-0.833-16.605c-0.774-6.224-5.56-8.006-12.3-10.621
				c-6.995-2.717-9.356-8.517-3.729-8.752c5.626-0.235,13.703,9.12,14.225,9.194c0.476,0.068,0.493-0.455,0.492-0.549
				c-1.392-9.018-3.544-18.042-6.672-26.666c-1.954-4.065-6.988-5.464-13.347-8.808c-6.411-3.371-5.681-8.06-2.615-8.856
				c3.065-0.796,8.577,4.64,9.4,4.727c0.751,0.08,0.723-0.342,0.713-0.416c-4.072-7.759-9.16-14.941-15.473-21.177
				c-1.829-1.807-3.607-3.5-5.337-5.091H0.504C0.414,0,0.339,0.074,0.339,0.166V30.371z"/>
			<path style="fill-rule:evenodd;clip-rule:evenodd;fill:#166C78;" d="M12.019,0c28.438,60.825,42.195,118.418,42.269,118.718
				c0.204,0.841-0.312,1.688-1.152,1.892c-0.839,0.204-1.686-0.312-1.89-1.152C51.172,119.156,37.271,60.945,8.609,0H12.019z"/>
		</g>
		<g>
			<path style="fill-rule:evenodd;clip-rule:evenodd;fill:#166C78;" d="M0.339,24.813c5.445,2.314,11.711,4.429,18.917,6.192
				c0.071,0.017,0.142,0.035,0.213,0.054c0.384,0.075,1.165,0.126,1.312-0.651c0.195-1.038-0.408-10.602-4.167-21.084
				c-3.76-10.481,6.939-5.173,8.231,2.976c1.292,8.147,0.065,15.236,0.778,17.889c0.713,2.653,2.727,3.213,2.727,3.213l0.001,0.001
				c8.899,2.506,17.818,5.474,26.459,8.699h0.003c0,0,1.98,0.522,0.688-2.218c-1.293-2.741-5.444-12.949-3.434-18.357
				c2.01-5.409,7.924,3.288,8.42,12.543c0.496,9.255,0.918,10.561,1.935,10.967v0.001c6.739,2.682,13.245,5.488,19.364,8.317l0,0
				c0,0,1.235,0.228,0.91-1.116c-0.326-1.343-5.13-12.642-2.373-16.091c2.756-3.448,8.012,3.744,7.515,11.125
				c-0.498,7.38-0.269,8.813,0.646,9.261l0,0.001c17.931,8.74,31.638,17.318,36.642,22.682c5.212,5.586-1.678-17.2-18.31-43.231
				c-1.546-2.293-2.83-2.805-5.837-3.256c-3.214-0.482-9.996-2.571-7.426-4.153c2.57-1.583,8.274,0.792,8.47,0.656
				c0.147-0.104,0.113-0.245,0.087-0.306c-3.08-4.432-6.426-8.887-10.031-13.255c-4.142-4.707-9.1-3.481-16.142-1.847
				c-7.309,1.696-12.523-1.767-8.006-5.133c4.518-3.364,16.457-0.183,16.93-0.415c0.432-0.212,0.151-0.654,0.097-0.73
				C82.539,4.957,80.029,2.434,77.426,0H0.504C0.414,0,0.339,0.074,0.339,0.166V24.813z"/>
			<path style="fill-rule:evenodd;clip-rule:evenodd;fill:#1E2A6D;" d="M42.878,0c40.446,27.583,68.23,52.87,68.412,53.034
				c0.641,0.58,0.692,1.57,0.114,2.213c-0.579,0.642-1.57,0.692-2.211,0.112C109.006,55.191,79.596,28.42,37.347,0H42.878z"/>
		</g>
		<g>
			<g>
				<path style="fill-rule:evenodd;clip-rule:evenodd;fill:#054466;" d="M375.763,433.695c7.137,9.611,26.666,29.682,45.34,50.695
					l22.126,13.357l7.149-13.728c-12.009-29.587-29.47-60.782-46.41-78.074C374.249,375.608,350.716,399.967,375.763,433.695z"/>
				<path style="fill-rule:evenodd;clip-rule:evenodd;fill:#1E2A6D;" d="M443.582,497.068
					c-19.776-48.328-65.258-92.531-65.424-92.693c-0.323-0.318-0.826-0.292-1.121,0.056c-0.294,0.35-0.271,0.891,0.053,1.208
					c0.163,0.161,44.917,43.658,64.697,91.238l1.442,0.87L443.582,497.068z"/>
			</g>
			<path style="fill-rule:evenodd;clip-rule:evenodd;fill:#054466;" d="M500.008,370.407c-6.05,8.12-11.641,19.354-11.076,32.768
				c0.678,16.117,6.026,31.876,11.076,44.227V370.407z"/>
			<path style="fill-rule:evenodd;clip-rule:evenodd;fill:#054466;" d="M398.977,500c-11.553-8.137-26.54-21.566-37.786-41.796
				c-16.322-29.358,32.571,1.239,68.006,35.518L408.068,500H398.977z"/>
			<g>
				<path style="fill-rule:evenodd;clip-rule:evenodd;fill:#176976;" d="M438.793,500c-6.599-11.073-14.019-26.995-15.064-43.874
					c-1.934-31.236-2.486-41.053-8.013-46.111c-5.262-4.815,65.63-3.154,82.918,89.984H438.793z"/>
				<path style="fill-rule:evenodd;clip-rule:evenodd;fill:#054466;" d="M423.908,408.931
					c23.948,23.453,42.244,59.344,54.975,91.069h-2.25c-12.991-32.221-31.706-68.542-56.212-91.429
					C421.45,408.623,422.619,408.739,423.908,408.931z"/>
			</g>
			<g>
				<path style="fill-rule:evenodd;clip-rule:evenodd;fill:#1E2A6D;" d="M483.512,375.573c4.059,10.775,9.759,32.933,16.495,58.123
					V500h-10.874c-23.782-33.838-45.771-75.435-53.294-107.454C422.643,336.371,463.701,322.986,483.512,375.573z"/>
				<path style="fill-rule:evenodd;clip-rule:evenodd;fill:#176976;" d="M500.008,488.685
					c-33.628-54.931-49.191-128.711-49.253-128.999c-0.13-0.605,0.221-1.208,0.782-1.348c0.561-0.14,1.121,0.237,1.252,0.841
					c0.06,0.282,15.035,71.268,47.219,125.438V488.685z"/>
			</g>
			<g>
				<path style="fill-rule:evenodd;clip-rule:evenodd;fill:#166C78;" d="M457.348,500c-2.526-9.35-6.521-20.545-12.751-30.933
					c-14.368-23.958-38.821-25.188-44.348-18.225c-3.936,4.959-9.198,25.291-1.223,49.159H457.348z"/>
				<path style="fill-rule:evenodd;clip-rule:evenodd;fill:#1E2A6D;" d="M440.229,500h3.142c-0.822-1.414-1.674-2.837-2.557-4.271
					c0.234-4.353,0.77-16.6-0.167-23.238c-0.067-0.476-0.381-0.781-0.702-0.682c-0.32,0.099-0.526,0.565-0.46,1.04
					c0.811,5.742,0.475,15.951,0.229,21.12c-4.1-6.488-8.84-13.104-14.289-19.514c-0.244-12.544-2.166-21.073-2.172-21.099
					c-0.103-0.462-0.439-0.714-0.751-0.561c-0.312,0.152-0.481,0.65-0.378,1.113c0.005,0.024,1.73,7.677,2.08,19.131
					c-6.142-7.052-13.151-13.824-21.123-19.857c-0.585-0.441-1.301-0.096-1.599,0.771c-0.298,0.868-0.064,1.929,0.521,2.37
					c3.884,2.939,7.53,6.056,10.959,9.293c-2.437,0.368-6.103,1.233-9.507,3.251c-0.304,0.181-0.452,0.693-0.33,1.143
					c0.122,0.451,0.467,0.67,0.772,0.489c4.102-2.432,8.602-3.127,10.691-3.324c5.308,5.175,10.067,10.633,14.319,16.163
					c-4.197,1.167-14.402,4.495-23.608,11.317c-0.292,0.217-0.411,0.744-0.265,1.178c0.146,0.434,0.502,0.609,0.795,0.393
					c9.84-7.293,20.863-10.535,24.206-11.402C433.843,489.897,437.231,495.009,440.229,500z"/>
			</g>
		</g>
		<g>
			<g>
				<path style="fill-rule:evenodd;clip-rule:evenodd;fill:#054466;" d="M48.389,497.227c0,0,0.865,1.396,2.91,3.413h43.077
					c-0.449-0.713-0.923-1.434-1.421-2.154c-5.295-7.66,4.496-5.675,7.293,0.631c0.226,0.51,0.438,1.019,0.636,1.523h23.361
					c0.275-2.467,2.241-2.035,4.387,0h43.005l-0.039-0.036c-1.742-1.519-2.89-1.657-5.418-1.374
					c-2.702,0.303-8.634,0.075-6.897-1.757c1.737-1.832,6.859-1.14,6.987-1.293c0.097-0.116,0.039-0.221,0.005-0.266
					c-3.443-2.917-7.106-5.797-10.96-8.549c-4.36-2.912-8.104-0.854-13.444,1.983c-5.543,2.945-10.503,1.269-7.576-2.422
					c2.927-3.691,13.262-3.691,13.595-3.981c0.303-0.265-0.019-0.561-0.079-0.611c-6.465-4.048-13.351-7.618-20.516-10.351
					c-3.641-0.986-7.278,1.439-12.869,3.637c-5.638,2.217-8.205-0.809-7.033-3.185c1.173-2.376,7.624-2.895,8.13-3.369
					c0.462-0.432,0.18-0.644,0.127-0.678c-7.134-1.663-14.46-2.367-21.856-1.777C35.134,471.286,48.389,497.227,48.389,497.227z"/>
				<path style="fill-rule:evenodd;clip-rule:evenodd;fill:#147075;" d="M67.149,471.696c33.049,8.222,63.498,19.998,84.237,28.944
					h-6.661c-21.201-8.905-50.595-19.865-82.038-27.379C64.063,472.716,65.547,472.193,67.149,471.696z"/>
			</g>
			<g>
				<path style="fill-rule:evenodd;clip-rule:evenodd;fill:#176976;" d="M29.673,472.957c0,0,21.967-4.166,35.405-41.441
					c0.021-0.057,0.043-0.116,0.063-0.173c0.097-0.313,0.209-0.959-0.424-1.149c-0.845-0.255-8.849-0.602-17.895,1.597
					c-9.046,2.198-3.684-6.233,3.203-6.584c6.887-0.352,12.671,1.297,14.939,0.94c2.269-0.358,2.912-1.983,2.912-1.983l0.002-0.001
					c2.872-7.183,6.131-14.34,9.579-21.243v-0.002c0,0,0.611-1.602-1.782-0.769c-2.393,0.833-11.247,3.38-15.564,1.228
					c-4.317-2.152,3.437-6.301,11.173-5.893c7.736,0.408,8.859,0.173,9.287-0.636h0.001c2.827-5.37,5.737-10.534,8.632-15.374l0,0
					c0,0,0.299-1.006-0.846-0.855c-1.145,0.151-10.964,3.146-13.585,0.547c-2.622-2.6,3.822-6.334,9.913-5.266
					c6.09,1.069,7.302,1.007,7.756,0.283l0,0.002c8.856-14.144,17.203-24.787,22.105-28.474c5.106-3.841-14.446-0.131-37.559,11.399
					c-2.043,1.082-2.583,2.104-3.225,4.568c-0.686,2.631-3.025,8.088-4.112,5.809c-1.087-2.279,1.394-6.813,1.298-6.988
					c-0.073-0.133-0.193-0.116-0.247-0.1c-3.956,2.17-7.956,4.559-11.907,7.171c-4.28,3.028-3.702,7.262-2.968,13.265
					c0.761,6.233-2.58,10.264-4.976,6.207c-2.396-4.057,1.309-13.708,1.157-14.123c-0.138-0.377-0.529-0.184-0.599-0.146
					c-6.095,4.586-11.895,9.737-17.014,15.449c-2.224,3.047-1.265,7.313-1.218,13.323c0.048,6.059-3.696,7.372-5.493,5.426
					c-1.797-1.946,0.031-8.158-0.23-8.8c-0.238-0.586-0.537-0.399-0.588-0.362c-4.109,6.067-7.392,12.655-9.493,19.774
					C0.712,476.037,29.673,472.957,29.673,472.957z"/>
				<path style="fill-rule:evenodd;clip-rule:evenodd;fill:#054466;" d="M12.571,446.286c35.45-50.7,78.778-89.204,78.986-89.39
					c0.538-0.482,1.366-0.436,1.849,0.102c0.482,0.539,0.436,1.367-0.102,1.85c-0.211,0.19-45.253,40.207-80.871,92.167
					C12.417,449.533,12.461,447.96,12.571,446.286z"/>
			</g>
			<g>
				<path style="fill-rule:evenodd;clip-rule:evenodd;fill:#1E2A6D;" d="M46.494,484.033c0,0,19.309,11.275,53.9-8.033
					c0.054-0.029,0.108-0.059,0.161-0.089c0.279-0.173,0.786-0.586,0.434-1.146c-0.47-0.747-6.282-6.262-14.55-10.541
					c-8.269-4.279,1.309-7.121,6.736-2.866c5.428,4.256,8.711,9.296,10.657,10.515c1.946,1.219,3.498,0.415,3.498,0.415h0.001
					c6.879-3.534,14.033-6.797,21.163-9.742l0.002-0.001c0,0,1.512-0.809-0.84-1.751c-2.353-0.943-10.704-4.831-12.55-9.289
					c-1.846-4.458,6.727-2.499,12.297,2.887c5.57,5.386,6.572,5.945,7.426,5.615l0.001,0.001c5.655-2.196,11.239-4.183,16.598-5.935
					l0,0c0,0,0.885-0.564-0.078-1.201c-0.964-0.637-10.336-4.822-10.61-8.505c-0.274-3.683,7.039-2.271,10.934,2.534
					c3.895,4.805,4.85,5.552,5.666,5.305v0.002c15.96-4.86,29.24-7.413,35.358-6.977c6.372,0.453-10.816-9.581-35.819-16.052
					c-2.252-0.524-3.329-0.107-5.43,1.331c-2.244,1.535-7.589,4.118-6.914,1.685c0.674-2.432,5.522-4.227,5.563-4.422
					c0.032-0.148-0.07-0.214-0.12-0.237c-4.408-0.96-8.994-1.783-13.689-2.405c-5.216-0.524-7.558,3.05-10.942,8.062
					c-3.513,5.203-8.679,6.051-7.826,1.418c0.853-4.635,9.979-9.486,10.137-9.899c0.143-0.375-0.279-0.487-0.356-0.502
					c-7.608-0.54-15.363-0.46-22.973,0.49c-3.677,0.839-5.752,4.687-9.658,9.253c-3.939,4.605-7.625,3.138-7.704,0.49
					c-0.079-2.648,5.374-6.136,5.6-6.792c0.205-0.598-0.144-0.653-0.207-0.658c-7.08,1.881-13.879,4.698-20.134,8.691
					C22.62,467.347,46.494,484.033,46.494,484.033z"/>
				<path style="fill-rule:evenodd;clip-rule:evenodd;fill:#176976;" d="M51.084,452.681c60.007-14.99,117.961-15.605,118.24-15.609
					c0.722-0.01,1.317,0.568,1.328,1.291c0.01,0.723-0.568,1.318-1.291,1.328c-0.284,0.004-60.522,0.638-121.483,16.467
					C48.837,455.03,49.902,453.872,51.084,452.681z"/>
			</g>
			<g>
				<path style="fill-rule:evenodd;clip-rule:evenodd;fill:#1E2A6D;" d="M0.339,330.363c26.164-22.587,44.629,11.734,41.485,45.926
					c-1.957,21.282-14.877,75.316-22.83,124.351H0.339V330.363z"/>
				<path style="fill-rule:evenodd;clip-rule:evenodd;fill:#166C78;" d="M0.339,431.621c5.41-52.092,15.74-91.945,15.803-92.195
					c0.214-0.838,1.067-1.344,1.904-1.131c0.838,0.214,1.344,1.067,1.13,1.905c-0.082,0.32-17.181,66.3-18.838,139.221V431.621z"/>
			</g>
			<g>
				<path style="fill-rule:evenodd;clip-rule:evenodd;fill:#166C78;" d="M86.276,412.309c35.265-3.509,28.876,33,6.243,56.11
					c-6.968,7.116-20.897,18.639-37.366,32.221H0.339v-11.47C28.05,449.031,61.332,414.791,86.276,412.309z"/>
				<path style="fill-rule:evenodd;clip-rule:evenodd;fill:#1E2A6D;" d="M15.012,500.641c39.723-43.026,80.345-72.887,80.564-73.048
					c0.633-0.469,1.527-0.336,1.995,0.297c0.469,0.633,0.336,1.527-0.297,1.997c-0.214,0.158-39.485,29.026-78.412,70.754H15.012z"
					/>
			</g>
		</g>
	</g>
</g>
</svg>
